<?xml version="1.0" encoding="utf-8"?>
<!-- Generator: Adobe Illustrator 16.0.0, SVG Export Plug-In . SVG Version: 6.00 Build 0)  -->
<!DOCTYPE svg PUBLIC "-//W3C//DTD SVG 1.1//EN" "http://www.w3.org/Graphics/SVG/1.1/DTD/svg11.dtd">
<svg version="1.1" id="Layer_1" xmlns="http://www.w3.org/2000/svg" xmlns:xlink="http://www.w3.org/1999/xlink" x="0px" y="0px"
	 width="1920px" height="1080px" viewBox="0 0 1920 1080" enable-background="new 0 0 1920 1080" xml:space="preserve">
<radialGradient id="SVGID_1_" cx="977.0078" cy="783.9458" r="478.5436" gradientUnits="userSpaceOnUse">
	<stop  offset="0.1281" style="stop-color:#808080"/>
	<stop  offset="1" style="stop-color:#CCCCCC"/>
</radialGradient>
<path fill="url(#SVGID_1_)" stroke="#FFFFFF" stroke-width="0.72" d="M539.188,541.061l-23.783,10.973l-24.561,13.065
	l-35.275,20.645l-15.416,11.5c0,0-21.168,18.288-22.738,19.598c-1.828,1.565-19.598,20.381-19.598,20.381l-15.412,19.075
	l-12.807,22.473l-9.93,22.997l-5.486,16.981l-3.135,22.997l3.398,35.274l7.574,24.042l20.385,35.799l18.551,25.348l18.816,17.246
	l25.604,19.598l28.486,20.122l79.439,45.465c0,0,30.307,11.5,32.135,12.542c1.57,0.787,36.85,11.5,36.85,11.5l74.729,18.812
	l32.141,5.75l52.785,9.408l61.146,9.407l34.492,2.611l44.164,3.139l43.635,2.348l40.766,1.047l61.146-1.047l44.945-2.348
	l36.84-2.356l52.262-5.486l47.559-7.314l44.164-9.408l51.479-12.802l41.283-13.329l44.947-16.463l41.025-21.95l32.402-19.599
	l32.4-24.038l23.779-24.302l18.027-22.996l13.854-25.607l7.055-21.69l3.658-17.766v-4.967l-4.703-35.534
	c0,0-8.361-26.658-8.885-28.224c-0.523-1.569-21.168-36.585-21.168-36.585l-22.992-26.649l-19.861-18.815l-30.313-24.825
	l-45.729-29.006l-43.113-24.302l-23.26-10.449l-19.598-9.148l-787.057-17.506l-19.074,3.919L539.188,541.061z"/>
<radialGradient id="SVGID_2_" cx="986.5449" cy="816.2153" r="293.0518" gradientUnits="userSpaceOnUse">
	<stop  offset="0.3153" style="stop-color:#666666"/>
	<stop  offset="1" style="stop-color:#999999"/>
</radialGradient>
<path fill="url(#SVGID_2_)" d="M1336.434,690.266l11.496,11.76l17.77,24.043l10.715,24.82l4.967,25.871l-9.932,32.664
	l-12.018,20.121l-19.34,21.427l-28.742,21.427l-60.623,29.788l-41.029,14.111l-72.9,13.849l-67.156,9.407l-56.441,2.093
	l-56.965,0.519l-63.24-6.269l-131.959-21.69c0,0-96.42-41.284-102.693-46.775c-6.01-5.223-45.729-39.455-47.035-41.544
	c-1.045-2.092-14.371-32.927-14.371-32.927l-5.227-23.52l1.047-21.427L1336.434,690.266z"/>
<radialGradient id="SVGID_3_" cx="917.5605" cy="673.6733" r="323.3236" gradientUnits="userSpaceOnUse">
	<stop  offset="0.4286" style="stop-color:#999999"/>
	<stop  offset="0.9803" style="stop-color:#E6E6E6"/>
</radialGradient>
<path fill="url(#SVGID_3_)" stroke="#FFFFFF" stroke-width="4" d="M557.217,530.608l-18.029,10.452l-15.42,13.589l-13.326,13.324
	l-8.102,12.283l-10.189,20.121l-7.316,21.687l-1.564,16.463l7.574,25.349c0,0,18.557,32.923,19.338,33.445
	c0.783,0.787,27.697,29.006,27.697,29.006l34.756,21.687l31.617,14.111c0,0,41.287,14.112,43.377,15.418
	c2.088,1.306,29.787,8.885,29.787,8.885s40.502,10.189,41.289,10.189c1.041,0,38.41,7.579,38.41,7.579s44.162,5.486,48.604,6.533
	c4.703,1.306,38.936,2.611,39.979,2.875c1.045,0,48.344,3.134,48.344,3.134s52.262-0.259,53.045-0.259
	c0.785,0,39.195-1.569,39.195-1.569l39.719-2.611l35.803-3.922l45.205-7.056l46.512-10.454l32.141-10.19l29.006-10.189
	l41.025-18.029l29.527-15.153l35.799-26.918l15.416-20.121l12.283-25.348l3.135-24.562l-1.568-12.806l-6.27-19.857l-7.838-14.895
	l-14.111-15.677l-8.885-7.319l-32.928-17.246L557.217,530.608z"/>
<radialGradient id="SVGID_4_" cx="939.249" cy="696.0161" r="199.5665" gradientUnits="userSpaceOnUse">
	<stop  offset="0.6798" style="stop-color:#808080"/>
	<stop  offset="1" style="stop-color:#999999"/>
</radialGradient>
<path fill="url(#SVGID_4_)" d="M682.643,624.68l-14.371,16.464l-2.088,18.028l6.27,31.357c0,0,12.283,15.413,14.111,17.246
	c1.566,2.089,26.391,19.599,26.391,19.599s44.424,15.936,46.516,17.246c2.088,1.306,48.6,10.19,52.779,11.496
	c4.186,1.306,106.352,11.236,106.352,11.236l61.146-0.783l77.088-8.884l52.26-14.635l52.785-23.256l19.857-12.283l20.385-20.64
	l6.533-18.033l3.658-26.913L682.643,624.68z"/>
<linearGradient id="SVGID_5_" gradientUnits="userSpaceOnUse" x1="949.4375" y1="552.2969" x2="949.4375" y2="731.291">
	<stop  offset="0" style="stop-color:#999999"/>
	<stop  offset="1" style="stop-color:#666666"/>
</linearGradient>
<path fill="url(#SVGID_5_)" d="M603.205,552.297l8.625,15.677l18.816,20.381c0,0,26.389,27.177,27.436,27.964
	c1.043,0.782,22.469,18.811,23.779,20.121c1.305,1.042,14.371,8.621,14.371,8.621s37.367,24.562,39.195,25.084
	c1.828,0.523,33.969,18.557,33.969,18.557l25.871,9.407l45.988,14.367l26.395,6.796l44.42,8.103l49.127,3.917l35.016-1.565
	l31.617-4.444c0,0,37.107-8.103,38.412-8.103c1.57,0,51.479-17.241,51.479-17.241l39.197-17.77l30.834-15.158l29.266-15.417
	l25.084-21.95l23.779-22.209l20.904-20.908l8.885-10.709L603.205,552.297z"/>
<path fill="#E6E6E6" stroke="#FFFFFF" stroke-width="4" d="M673.5,333.844l-16.205,3.921l-27.959,6.792l-36.32,10.714
	c0,0-24.303,9.407-25.609,9.407c-1.041,0-28.219,11.237-28.219,11.237l-19.598,13.588c0,0-18.551,14.895-20.125,15.418
	c-1.301,0.521-12.02,16.723-12.02,16.723l-6.006,16.984l0.52,23.779l6.533,14.632l15.158,15.158l20.381,16.723
	c0,0,19.074,13.589,20.121,14.633c1.305,1.308,28.219,14.633,28.219,14.633l30.834,14.111l38.678,11.236l75.775,20.904l55.66,10.713
	l68.984,10.19l50.17,2.611l52.26,2.875l52.002,0.523l65.068-1.042l58.795-4.704l74.992-8.625l45.73-9.407
	c0,0,43.635-9.668,45.465-9.668c1.568,0,37.367-11.496,37.367-11.496l22.213-11.236l26.914-16.725l15.676-14.371l9.932-13.327
	l6.01-13.065l1.568-10.454l1.047-7.315l-1.834-11.495l-4.963-12.545l-10.189-15.679l-12.543-10.19L783.244,318.949l-44.158,4.964
	c0,0-19.598,2.352-20.381,2.352c-0.787,0.264-29.529,4.968-29.529,4.968L673.5,333.844z"/>
<path fill="#666666" d="M528.998,451.432l27.172,32.141l44.424,25.871l91.721,29.788c0,0,62.189,15.94,65.586,15.94
	c3.135,0,72.643,12.283,72.643,12.283l130.918,10.973c0,0,59.576-0.782,66.369,0c7.055,0.782,85.447-5.75,85.447-5.75l81.791-9.408
	l97.99-29.265l39.195-14.895l17.506-16.723l8.885-13.065l4.703-13.327l-1.305-22.211L784.555,344.818L657.559,356.84l-44.945,14.633
	l-44.42,18.554l-31.361,22.471l-8.881,19.075l-1.045,17.77L528.998,451.432z"/>
<path fill="#808080" d="M565.318,465.15l-10.453-25.608l-14.895-26.39l-44.164-43.379l-64.279-60.885l-72.643-55.396
	c0,0-101.389-81.268-104.26-81.268c-2.875,0-79.961-65.065-82.576-65.065c-2.348,0-30.309-24.302-30.309-24.302L126.842,71.36
	l3.662-8.361l3.658-6.533l10.709-4.703l11.236,1.306c0,0,32.145,35.015,34.232,36.323c2.09,1.308,57.752,48.602,57.752,48.602
	l103.477,80.484l49.387,40.502l41.809,37.105c0,0,41.287,35.8,42.334,37.367c1.301,1.829,31.094,28.221,31.094,28.221l32.141,39.196
	l19.334,28.483l6.273,5.747L565.318,465.15z"/>
<linearGradient id="SVGID_6_" gradientUnits="userSpaceOnUse" x1="126.8418" y1="248.396" x2="573.9395" y2="248.396">
	<stop  offset="0" style="stop-color:#FFFFFF"/>
	<stop  offset="0.9951" style="stop-color:#808080"/>
</linearGradient>
<path fill="url(#SVGID_6_)" d="M565.318,455.09l-10.453-25.608l-14.895-26.39l-44.164-43.379l-64.279-60.885l-72.643-55.396
	c0,0-101.389-81.268-104.26-81.268c-2.875,0-79.961-65.065-82.576-65.065c-2.348,0-30.309-24.302-30.309-24.302L126.842,61.3
	l3.662-8.361l3.658-6.533l10.709-4.703l11.236,1.306c0,0,32.145,35.015,34.232,36.323c2.09,1.308,57.752,48.602,57.752,48.602
	l103.477,80.484l49.387,40.502l41.809,37.105c0,0,41.287,35.8,42.334,37.367c1.301,1.829,31.094,28.221,31.094,28.221l32.141,39.196
	l19.334,28.483l6.273,5.747L565.318,455.09z"/>
<radialGradient id="SVGID_7_" cx="1016.2041" cy="461.8838" r="302.3199" gradientUnits="userSpaceOnUse">
	<stop  offset="0.6798" style="stop-color:#808080"/>
	<stop  offset="1" style="stop-color:#999999"/>
</radialGradient>
<polygon fill="url(#SVGID_7_)" points="1427.633,345.604 1416.133,374.609 1406.988,391.855 1398.887,408.055 1387.127,427.915 
	1370.926,450.908 1353.416,478.086 1339.832,495.854 1321.801,515.712 1293.059,534.005 1227.467,557.261 1195.068,563.27 
	1067.813,575.289 1012.676,578.164 965.9,577.382 891.953,572.678 830.543,567.455 732.293,550.991 629.859,520.68 613.658,506.307 
	604.775,493.503 "/>
<path fill="#E6E6E6" stroke="#FFFFFF" stroke-width="4" d="M567.148,440.979l-1.83,14.11l2.348,11.236l9.408,13.588l19.861,13.849
	l30.053,10.715l26.391,5.748l35.016,4.704l40.242,3.657l72.9-0.782l43.641-4.181l55.656-7.056l71.859-10.975l45.729-7.577
	l49.914-10.716l67.674-15.155l73.688-19.075l54.877-19.337l68.463-24.302l68.465-30.572l37.104-19.337l36.844-25.087l13.59-14.109
	l11.236-19.336l2.088-14.635l-1.307-9.668l-9.143-12.019l-12.807-9.148l-34.492-13.065c0,0-29.266-4.701-31.094-4.963
	c-1.57-0.523-27.178-3.92-27.178-3.92l-33.709-1.83l-33.447-0.521l-45.469,0.785l-45.729,2.088l-50.428,4.181l-54.354,6.012
	l-48.605,7.054l-60.359,9.931l-72.381,14.895l-78.396,19.339l-59.055,16.461l-44.422,14.633l-41.025,14.371l-35.275,15.94
	l-47.039,24.563l-24.561,16.461l-16.723,13.851l-21.428,23.255L567.148,440.979z"/>
<path fill="#666666" d="M571.318,824.79l52.525,38.414l41.807,22.732l75.518,30.835c0,0,32.926,12.542,45.992,14.107
	c13.328,1.569,60.623,0,60.623,0s31.098-7.315,35.537-7.315c4.441,0,45.467-17.77,45.467-17.77s28.746-21.163,30.574-21.163
	c1.57,0,17.506-15.94,17.506-15.94l18.557-9.931l22.473-8.361l55.918-17.77c0,0,65.328-15.153,66.893-15.153
	c1.57,0,64.809-8.361,67.156-8.361c2.615,0,67.678-1.834,67.678-1.834l82.574-4.181l64.283-0.782c0,0,63.234-2.611,66.369-2.611
	c3.398,0,82.578-3.139,82.578-3.139l41.543-3.135l23.256-3.917l-3.918-7.579l-4.963-8.102c0,0-8.625-6.792-10.977-7.056
	c-2.611-0.523-16.199-8.098-16.199-8.098s-19.34,7.574-23.52,8.361c-3.918,1.042-52.262,3.917-52.262,3.917
	s-45.465,7.838-49.646,7.838c-3.922,0-30.311,1.047-37.891,2.093c-7.314,0.782-53.566,2.352-53.566,2.352
	s-50.174,0.523-52.262,0.523c-2.092,0-60.363,4.44-60.363,4.44l-51.215,3.397l-64.021,5.746l-80.744,18.557l-83.096,22.732
	l-33.445,11.5l-27.701,7.838l-32.141,9.404l-37.631,12.023l-37.104,7.056l-25.607,1.046c0,0-35.279-4.444-37.891-4.444
	c-2.352,0-53.566-16.986-53.566-16.986l-42.594-19.599l-35.799-21.687l-26.654-17.246l-19.074-12.282l-2.352,3.921l16.463,13.849
	l-18.293-10.19l-1.564,4.439l19.07,12.283l-20.117-8.885l-1.568,3.922l21.168,12.542c-4.705-1.046-14.895-6.01-21.955-8.885
	L571.318,824.79z"/>
<polygon fill="#FFFFFF" points="590.404,417.463 586.746,425.301 589.881,437.844 595.627,450.126 602.686,454.566 616.012,462.146 
	595.367,459.271 585.699,450.126 581.26,441.765 579.689,431.572 581.52,426.87 "/>
<linearGradient id="SVGID_8_" gradientUnits="userSpaceOnUse" x1="1125.165" y1="668.7786" x2="1071.1951" y2="974.8573">
	<stop  offset="0" style="stop-color:#E6E6E6"/>
	<stop  offset="0.266" style="stop-color:#999999"/>
	<stop  offset="0.803" style="stop-color:#B3B3B3"/>
	<stop  offset="1" style="stop-color:#666666"/>
</linearGradient>
<path fill="url(#SVGID_8_)" d="M569.496,818.308l52.525,38.414l41.807,22.732l75.518,30.835c0,0,32.926,12.542,45.992,14.107
	c13.328,1.569,60.623,0,60.623,0s31.098-7.315,35.537-7.315c4.441,0,45.467-17.77,45.467-17.77s28.746-21.163,30.574-21.163
	c1.57,0,17.506-15.94,17.506-15.94l18.557-9.931l22.473-8.361l55.918-17.77c0,0,65.328-15.153,66.893-15.153
	c1.57,0,64.809-8.361,67.156-8.361c2.615,0,67.678-1.834,67.678-1.834l82.574-4.181l64.283-0.782c0,0,63.234-2.611,66.369-2.611
	c3.398,0,82.578-3.139,82.578-3.139l41.543-3.135l23.256-3.917l-3.918-7.579l-4.963-8.102c0,0-8.625-6.792-10.977-7.056
	c-2.611-0.523-16.199-8.098-16.199-8.098s-19.34,7.574-23.52,8.361c-3.918,1.042-52.262,3.917-52.262,3.917
	s-45.465,7.838-49.646,7.838c-3.922,0-30.311,1.047-37.891,2.093c-7.314,0.782-53.566,2.352-53.566,2.352
	s-50.174,0.523-52.262,0.523c-2.092,0-60.363,4.44-60.363,4.44l-51.215,3.397l-64.021,5.746l-80.744,18.557l-83.096,22.732
	l-33.445,11.5l-27.701,7.838l-32.141,9.404l-37.631,12.023l-37.104,7.056l-25.607,1.046c0,0-35.279-4.444-37.891-4.444
	c-2.352,0-53.566-16.986-53.566-16.986L662,839.994l-35.799-21.687l-26.654-17.246l-19.074-12.282l-2.352,3.921l16.463,13.849
	l-18.293-10.19l-1.564,4.439l19.07,12.283l-20.117-8.885l-1.568,3.922l21.168,12.542c-4.705-1.046-14.895-6.01-21.955-8.885
	L569.496,818.308z"/>
<path fill="none" stroke="#E6E6E6" stroke-width="0.72" d="M839.951,887.815c0,0-13.852,1.306-14.895,1.306
	c-1.047,0-14.895,0.523-19.074,0c-4.182-0.264-39.461-4.963-39.461-4.963l-42.33-11.5l-29.006-12.802l-7.055-3.135"/>
<path fill="none" stroke="#E6E6E6" stroke-width="0.72" d="M843.086,895.918c0,0-18.553,1.564-20.645,1.564
	c-2.348,0-28.219-0.782-31.617-1.046c-3.395-0.26-35.539-6.269-35.539-6.269s-29.787-10.19-32.398-10.714
	c-2.354-0.523-35.275-15.158-35.275-15.158l-42.336-20.64l-0.258-0.527"/>
<polyline fill="none" stroke="#E6E6E6" stroke-width="0.72" points="846.484,904.539 834.201,905.585 808.857,906.891 
	781.416,905.062 751.109,897.224 714.783,884.417 685.518,872.135 670.883,864.819 "/>
<linearGradient id="SVGID_9_" gradientUnits="userSpaceOnUse" x1="992.4854" y1="236.1018" x2="1070.327" y2="449.97">
	<stop  offset="0.33" style="stop-color:#B3B3B3"/>
	<stop  offset="0.9606" style="stop-color:#666666"/>
</linearGradient>
<polygon fill="url(#SVGID_9_)" points="841.779,295.953 732.553,330.709 665.396,363.372 623.066,400.217 612.354,416.678 
	610.783,430.005 614.705,445.684 629.336,458.487 659.125,467.896 726.279,476.78 817.736,472.6 915.732,462.146 1012.676,446.205 
	1113.018,425.824 1179.91,406.749 1252.814,383.229 1351.328,347.693 1422.143,315.551 1451.148,287.068 1458.727,269.563 
	1454.023,261.984 1427.893,240.296 1347.93,229.844 1242.361,228.798 1107.531,240.296 1027.047,252.576 954.141,268.517 "/>
<path fill="#FFFFFF" d="M1392.877,490.628c0,0-9.932,19.598-11.76,20.903c-2.088,1.309-23.516,18.815-23.516,18.815l-17.25,8.623
	l11.236-12.804l18.033-18.552c0,0,18.293-25.609,19.334-26.395c0.787-0.522,3.922-20.903,3.922-20.903l-2.092-11.236l7.842,12.542
	c0,0,0,14.111-0.523,15.417C1397.58,478.608,1392.877,490.628,1392.877,490.628L1392.877,490.628z"/>
<g>
	<path fill="#808080" d="M1090.564,435.42l16.037-13.932l65.723-43.375c0,0,60.992-38.911,64.146-38.385
		c2.891,0.792,58.624-29.708,58.624-29.708l85.706-34.699l111.465-45.743l39.959-19.458l33.915-14.721l49.425-25.764l19.191-13.407
		l20.503,5.784l8.938,10.515l-17.61,12.881c0,0-63.362,31.283-65.725,31.809c-2.366,0.527-164.834,66.776-164.834,66.776
		l-69.931,29.444l-64.41,28.13l-44.691,21.823l-44.166,22.344l-44.955,26.29l-23.662,16.563l-13.932,3.154L1090.564,435.42z"/>
</g>
<polygon fill="#F2F2F2" points="680.551,399.432 737.516,368.076 813.82,339.07 825.057,335.934 784.291,359.713 781.416,367.553 
	850.928,347.432 870.525,342.989 804.936,375.392 786.643,390.026 842.039,371.734 893.518,354.747 815.648,393.161 
	803.629,403.092 787.43,415.37 823.488,401.522 848.053,392.899 805.199,417.463 786.383,433.14 775.146,446.469 801.537,433.14 
	774.625,460.316 752.938,472.076 752.41,455.874 741.701,451.693 729.678,456.659 721.84,456.397 722.363,446.469 731.77,438.104 
	736.475,430.267 719.488,434.968 706.945,437.32 714.783,425.039 724.451,415.37 705.898,418.245 688.131,427.13 676.893,437.32 
	678.986,427.915 686.824,413.021 699.107,403.874 676.111,409.36 658.342,422.167 668.271,407.532 "/>
<g>
	<linearGradient id="SVGID_10_" gradientUnits="userSpaceOnUse" x1="1345.9707" y1="254.23" x2="1373.7826" y2="330.6424">
		<stop  offset="0" style="stop-color:#FFFFFF"/>
		<stop  offset="0.9606" style="stop-color:#808080"/>
	</linearGradient>
	<path fill="url(#SVGID_10_)" d="M1076.531,433.42l16.037-13.932l65.723-43.375c0,0,60.992-38.911,64.146-38.385
		c2.891,0.792,58.624-29.708,58.624-29.708l85.706-34.699l111.465-45.743l39.959-19.458l33.915-14.721l49.425-25.764l19.191-13.407
		l20.503,5.784l8.938,10.515l-17.61,12.881c0,0-63.362,31.283-65.725,31.809c-2.366,0.527-164.834,66.776-164.834,66.776
		l-69.931,29.444l-64.41,28.13l-44.691,21.823l-44.166,22.344l-44.955,26.29l-23.662,16.563l-13.932,3.154L1076.531,433.42z"/>
</g>
<rect x="1058.999" y="425" transform="matrix(0.9744 -0.2249 0.2249 0.9744 -70.8021 261.571)" fill="#E6E6E6" width="107" height="33"/>
</svg>
