<?xml version="1.0" encoding="utf-8"?>
<!-- Generator: Adobe Illustrator 16.0.0, SVG Export Plug-In . SVG Version: 6.00 Build 0)  -->
<!DOCTYPE svg PUBLIC "-//W3C//DTD SVG 1.1//EN" "http://www.w3.org/Graphics/SVG/1.1/DTD/svg11.dtd">
<svg version="1.1" id="Layer_1" xmlns="http://www.w3.org/2000/svg" xmlns:xlink="http://www.w3.org/1999/xlink" x="0px" y="0px"
	 width="1920px" height="1080px" viewBox="0 0 1920 1080" enable-background="new 0 0 1920 1080" xml:space="preserve">
<radialGradient id="SVGID_1_" cx="1980" cy="-660" r="250.5" gradientTransform="matrix(2 0 0 2 -3000 1860)" gradientUnits="userSpaceOnUse">
	<stop  offset="0" style="stop-color:#FFFFFF"/>
	<stop  offset="1" style="stop-color:#000000"/>
</radialGradient>
<path fill-rule="evenodd" clip-rule="evenodd" fill="none" stroke="url(#SVGID_1_)" d="M1460,540c0,274.984-225.018,500-500,500
	S460,814.984,460,540c0-275.024,225.018-499.999,500-499.999S1460,264.976,1460,540L1460,540z"/>
<g>
	
		<radialGradient id="SVGID_2_" cx="1980" cy="-660" r="250" gradientTransform="matrix(2 0 0 2 -3000 1860)" gradientUnits="userSpaceOnUse">
		<stop  offset="0" style="stop-color:#FEB054"/>
		<stop  offset="1" style="stop-color:#56466D"/>
	</radialGradient>
	<path fill="url(#SVGID_2_)" stroke="#000000" stroke-width="0.12" d="M959.996,40C684.129,40,460,264.135,460,540
		c0,275.858,224.129,500,499.996,500C1235.859,1040,1460,815.858,1460,540C1460,264.135,1235.859,40,959.996,40L959.996,40z"/>
</g>
<path fill="#FFFFFF" stroke="#FFFFFF" d="M960.002,40C684.938,40,460,264.976,460,540c0,274.984,224.938,500,500.002,500
	C1234.984,1040,1460,814.984,1460,540C1460,264.976,1234.984,40,960.002,40L960.002,40z M960.002,74.993
	c254.961,0,465.004,204.997,465.004,465.007s-210.043,465.006-465.004,465.006c-255.047,0-465.008-204.996-465.008-465.006
	S704.955,74.993,960.002,74.993L960.002,74.993z"/>
<g>
	<linearGradient id="SVGID_3_" gradientUnits="userSpaceOnUse" x1="960.4204" y1="731.4893" x2="960.4204" y2="607.2354">
		<stop  offset="0" style="stop-color:#301476"/>
		<stop  offset="0.6059" style="stop-color:#54446D"/>
	</linearGradient>
	<path fill="url(#SVGID_3_)" stroke="#000000" stroke-width="0.12" d="M674.006,669.358c0,34.428,128.338,62.131,286.412,62.131
		c158.855,0,287.203-27.703,286.412-62.131c0.791-34.426-127.557-62.123-286.412-62.123
		C802.344,607.235,674.006,634.933,674.006,669.358L674.006,669.358z"/>
</g>
<path fill="#946B89" stroke="#946B89" stroke-width="6" d="M686.148,672.362c-54.863-42.323,83.076-83.868,275.074-83.868
	c192.008,0,329.934,41.545,275.086,83.868C1136.777,610.446,785.68,610.446,686.148,672.362z"/>
<path fill="#FFFFFF" stroke="#FFFFFF" stroke-width="6" d="M949.984,576.255c-160.723,5.004-286.227,34.992-286.227,75.031
	c5.063,99.938,587.406,99.938,592.473,0C1256.23,611.247,1120.676,576.255,949.984,576.255L949.984,576.255z M951.219,586.263
	c164.955,0,295,29.992,295,65.023c0,84.961-569.984,84.961-569.984,0C676.234,616.255,796.189,586.263,951.219,586.263
	L951.219,586.263z"/>
<path fill="#FFFFFF" d="M1246.83,712.441c-76.01,80.243-497.646,80.243-573.67,0v201.866c167.711,143.591,405.18,143.591,573.67,0
	V712.441z"/>
<linearGradient id="SVGID_4_" gradientUnits="userSpaceOnUse" x1="744.4766" y1="864.4507" x2="706.8594" y2="864.4507">
	<stop  offset="0" style="stop-color:#EA8B6C"/>
	<stop  offset="1" style="stop-color:#FEB054"/>
</linearGradient>
<path fill="url(#SVGID_4_)" d="M725.676,779.811c10.178,0,18.801,18.815,18.801,42.324v126.956
	c-13.316-6.263-25.078-13.317-37.617-21.161V810.373C706.859,793.141,715.484,779.811,725.676,779.811z"/>
<linearGradient id="SVGID_5_" gradientUnits="userSpaceOnUse" x1="858.1172" y1="897.4614" x2="803.2539" y2="897.4614">
	<stop  offset="0.5" style="stop-color:#EA8B6C"/>
	<stop  offset="1" style="stop-color:#FEB054"/>
</linearGradient>
<path fill="url(#SVGID_5_)" d="M830.68,804.111c15.688,0,27.438,18.023,27.438,39.963v147.34
	c-18.816-3.916-36.84-9.401-54.863-16.455V837.02c0-21.161,15.676-36.824,32.91-32.908"/>
<path fill="#EA8B6C" d="M996.832,844.865v156.74c-24.299,1.568-49.375,1.568-73.676,0v-156.74
	C922.379,795.488,997.611,795.488,996.832,844.865z"/>
<linearGradient id="SVGID_6_" gradientUnits="userSpaceOnUse" x1="1061.875" y1="897.4614" x2="1116.7344" y2="897.4614">
	<stop  offset="0.5" style="stop-color:#EA8B6C"/>
	<stop  offset="1" style="stop-color:#FEB054"/>
</linearGradient>
<path fill="url(#SVGID_6_)" d="M1083.826,804.111c17.232-3.916,32.908,11.747,32.908,32.908v137.939
	c-18.023,7.054-36.047,12.539-54.859,16.455v-147.34c0-21.939,11.76-39.963,27.438-39.963"/>
<linearGradient id="SVGID_7_" gradientUnits="userSpaceOnUse" x1="1175.5137" y1="864.4507" x2="1213.1289" y2="864.4507">
	<stop  offset="0" style="stop-color:#EA8B6C"/>
	<stop  offset="1" style="stop-color:#FEB054"/>
</linearGradient>
<path fill="url(#SVGID_7_)" d="M1213.129,810.373c0-17.232-8.609-30.563-18.801-30.563s-18.814,18.815-18.814,42.324v126.956
	c12.537-6.263,25.076-13.317,37.615-21.161V810.373z"/>
<path fill="#FFFFFF" stroke="#FFFFFF" stroke-width="6" d="M1256.23,698.32v-47.034c0,41.455-132.441,74.93-296.234,74.93
	c-163.797,0-296.238-33.475-296.238-74.93v47.034c0,41.454,132.441,74.93,296.238,74.93
	C1123.789,773.25,1256.23,739.774,1256.23,698.32z"/>
<g>
	<path fill="#FFFFFF" d="M687.71,408.829c6.46,1.395,10.955,3.04,13.49,4.94c2.533,1.9,3.99,3.8,4.37,5.7
		c-11.147-1.9-21.28-3.04-30.4-3.42c-9.12-0.38-17.48-0.125-25.08,0.76c2.152,1.395,3.578,2.978,4.275,4.75
		c0.695,1.775,0.917,3.42,0.665,4.94c-1.52,6.335-3.325,13.395-5.415,21.185c-2.09,7.79-4.212,15.518-6.365,23.18
		c-2.155,7.665-4.18,14.82-6.08,21.47s-3.42,12.065-4.56,16.245c-3.295-0.38-6.335-0.983-9.12-1.805
		c-2.788-0.825-5.067-1.933-6.84-3.325c-1.775-1.393-2.978-3.103-3.61-5.13c-0.635-2.024-0.38-4.495,0.76-7.41
		c1.265-3.292,2.913-7.885,4.94-13.775c2.025-5.89,4.275-12.255,6.745-19.095c2.47-6.84,4.97-13.775,7.505-20.805
		c2.533-7.03,4.875-13.33,7.03-18.905c-9.5,1.9-17.48,4.53-23.94,7.885c-6.46,3.358-11.495,6.968-15.105,10.83
		c-3.61,3.865-5.89,7.666-6.84,11.4c-0.95,3.738-0.665,6.811,0.855,9.215c-5.572-0.505-10.004-1.645-13.3-3.42
		c-3.292-1.772-5.7-3.8-7.22-6.08c-1.52-2.28-2.185-4.685-1.995-7.22c0.19-2.532,1.045-4.75,2.565-6.65
		c3.167-3.925,8.33-7.915,15.485-11.97c7.155-4.052,15.737-7.505,25.745-10.355c10.004-2.85,21.09-4.685,33.25-5.51
		C661.681,405.631,674.411,406.424,687.71,408.829z"/>
	<path fill="#FFFFFF" d="M682.579,470.389l9.88-14.25c0.125-0.252,0.632-0.917,1.52-1.995c0.885-1.075,1.93-2.185,3.135-3.325
		c1.202-1.14,2.595-2.152,4.18-3.04c1.582-0.884,3.197-1.265,4.845-1.14c2.28,0.127,3.862,0.635,4.75,1.52
		c0.885,0.888,1.455,1.837,1.71,2.85c0.252,1.268,0.125,3.04-0.38,5.32c-0.508,2.28-1.173,4.72-1.995,7.315
		c-0.825,2.598-1.615,5.163-2.375,7.695c-0.76,2.536-1.268,4.688-1.52,6.46c-0.888,3.548-0.855,5.67,0.095,6.365
		c0.95,0.698,2.438,0.38,4.465-0.95c2.025-1.33,4.4-3.42,7.125-6.27c2.723-2.85,5.415-5.985,8.075-9.405
		c0,0.127,0.19,0.413,0.57,0.855c0.38,0.445,0.665,1.045,0.855,1.805c0.19,0.76,0.22,1.647,0.095,2.66
		c-0.128,1.016-0.635,2.09-1.52,3.23c-3.548,4.436-7.315,8.075-11.305,10.925c-3.99,2.85-8.645,4.275-13.965,4.275
		c-2.536,0-4.845-0.6-6.935-1.805c-2.09-1.202-3.325-3.197-3.705-5.985c0-0.76,0.125-1.834,0.38-3.23
		c0.252-1.393,0.632-2.88,1.14-4.465c0.505-1.583,1.012-3.23,1.52-4.94c0.505-1.71,0.95-3.198,1.33-4.465
		c0.632-1.9,0.727-2.879,0.285-2.945c-0.445-0.063-1.078,0.285-1.9,1.045c-0.825,0.76-1.68,1.71-2.565,2.85
		c-0.888,1.14-1.52,2.027-1.9,2.66c-1.14,2.156-2.725,4.721-4.75,7.695c-2.028,2.978-3.738,5.67-5.13,8.075l-1.14,4.37
		c-1.52,5.575-3.167,9.058-4.94,10.45c-1.775,1.395-4.118,2.024-7.03,1.9c-1.9-0.125-3.387-0.76-4.465-1.9
		c-1.075-1.14-1.359-2.785-0.855-4.94c0.635-3.04,1.396-6.428,2.28-10.165c0.887-3.735,1.933-7.63,3.135-11.685
		c1.202-4.052,2.5-8.075,3.895-12.065c1.393-3.99,2.912-7.82,4.56-11.495c0.632-1.52,1.74-2.565,3.325-3.135
		c1.583-0.57,3.23-0.79,4.94-0.665c1.71,0.127,3.165,0.445,4.37,0.95c1.203,0.508,1.74,1.016,1.615,1.52L682.579,470.389z"/>
	<path fill="#FFFFFF" d="M771.119,452.528c0.504,2.66-0.38,4.94-2.66,6.84c1.012,0.255,1.835,0.507,2.47,0.76
		c0.632,0.255,0.885,0.508,0.76,0.76c-1.015,4.688-2.28,9.185-3.8,13.49c-1.52,4.308-2.788,8.678-3.8,13.11
		c-0.888,3.547-0.855,5.257,0.095,5.13c0.95-0.125,2.5-1.393,4.655-3.8c2.152-2.404,4.717-5.54,7.695-9.405
		c2.975-3.862,6.047-7.82,9.215-11.875c0,0.127,0.19,0.413,0.57,0.855c0.38,0.445,0.695,1.045,0.95,1.805
		c0.252,0.76,0.285,1.647,0.095,2.66c-0.19,1.016-0.73,2.09-1.615,3.23c-2.535,3.04-4.75,5.733-6.65,8.075
		c-1.9,2.345-3.738,4.465-5.51,6.365c-1.775,1.9-3.58,3.675-5.415,5.32c-1.837,1.647-3.96,3.295-6.365,4.94
		c-1.268,1.015-2.693,1.647-4.275,1.9c-1.585,0.252-3.105,0.22-4.56-0.095c-1.458-0.315-2.726-0.855-3.8-1.615
		c-1.078-0.76-1.743-1.645-1.995-2.66c-0.255-0.884-0.351-1.834-0.285-2.85c0.063-1.013,0.157-2.09,0.285-3.23
		c-2.788,2.66-5.828,5.067-9.12,7.22c-3.295,2.155-6.397,3.23-9.31,3.23c-2.788,0-5.005-0.57-6.65-1.71s-2.723-2.595-3.23-4.37
		c-1.265-4.305-1.203-9.372,0.19-15.2c1.396-5.825,3.83-11.368,7.315-16.625c3.482-5.255,7.915-9.69,13.3-13.3
		c5.382-3.61,11.43-5.35,18.145-5.225c3.165,0,6.047,0.508,8.645,1.52C769.059,448.794,770.611,450.376,771.119,452.528z
		 M749.649,461.648c3.292-0.632,5.857-1.645,7.695-3.04c1.834-1.392,3.007-3.04,3.515-4.94c0.125-0.76-0.223-1.582-1.045-2.47
		c-0.825-0.885-2.25-1.013-4.275-0.38c-2.788,0.76-5.48,3.01-8.075,6.745c-2.598,3.738-4.877,7.855-6.84,12.35
		c-1.965,4.498-3.453,8.9-4.465,13.205c-1.016,4.308-1.33,7.475-0.95,9.5c0.125,1.015,0.728,1.425,1.805,1.235
		c1.075-0.19,2.28-0.76,3.61-1.71s2.722-2.09,4.18-3.42c1.455-1.33,2.755-2.69,3.895-4.085c0.884-3.545,1.9-7.155,3.04-10.83
		c1.14-3.672,2.214-7.092,3.23-10.26C752.689,463.548,750.914,462.916,749.649,461.648z"/>
	<path fill="#FFFFFF" d="M791.448,494.139c0.505,1.395,1.36,2.408,2.565,3.04c1.202,0.635,2.31,0.95,3.325,0.95
		c2.152,0.128,3.99-0.314,5.51-1.33c1.52-1.012,2.595-2.09,3.23-3.23c1.265-1.645,1.455-3.23,0.57-4.75
		c-0.888-1.52-2.28-3.04-4.18-4.56c-1.9-1.52-4.15-3.069-6.745-4.655c-2.598-1.583-4.973-3.23-7.125-4.94
		c-2.155-1.71-3.865-3.515-5.13-5.415c-1.268-1.9-1.585-3.99-0.95-6.27c1.393-4.94,4.337-8.959,8.835-12.065
		c4.495-3.103,10.29-4.717,17.385-4.845c6.333-0.125,11.21,0.73,14.63,2.565c3.42,1.838,5.635,4.531,6.65,8.075
		c0.76,2.916,0.285,5.51-1.425,7.79s-3.928,4.055-6.65,5.32c-2.726,1.268-5.638,1.775-8.74,1.52c-3.105-0.252-5.67-1.52-7.695-3.8
		c3.292-0.632,5.857-2.248,7.695-4.845c1.835-2.595,2.945-5.16,3.325-7.695c0.125-2.405-0.445-3.768-1.71-4.085
		c-1.268-0.315-2.82-0.03-4.655,0.855c-1.837,0.888-3.705,2.123-5.605,3.705c-1.9,1.585-3.295,3.01-4.18,4.275
		c-1.396,1.775-1.871,3.357-1.425,4.75c0.442,1.396,1.425,2.693,2.945,3.895c1.52,1.205,3.354,2.408,5.51,3.61
		c2.152,1.206,4.242,2.503,6.27,3.895c2.025,1.396,3.8,2.978,5.32,4.75c1.52,1.775,2.342,3.8,2.47,6.08
		c0.38,4.436-1.425,8.203-5.415,11.305c-3.99,3.105-9.66,4.655-17.005,4.655c-3.42,0-6.525-0.347-9.31-1.045
		c-2.788-0.695-5.13-1.71-7.03-3.04c-1.9-1.33-3.259-2.88-4.085-4.655c-0.822-1.772-0.917-3.61-0.285-5.51
		c0.507-1.9,1.68-3.482,3.515-4.75c1.835-1.265,3.925-2.057,6.27-2.375c2.342-0.314,4.75-0.095,7.22,0.665
		c2.47,0.76,4.59,2.218,6.365,4.37c-3.295,0.635-5.985,1.615-8.075,2.945S790.813,492.239,791.448,494.139z"/>
	<path fill="#FFFFFF" d="M847.306,474.949c4.052-5.32,7.505-9.785,10.355-13.395c2.85-3.61,5.287-6.522,7.315-8.74
		c2.024-2.215,3.767-3.8,5.225-4.75c1.455-0.95,2.879-1.36,4.275-1.235c3.925,0,6.27,1.775,7.03,5.32
		c0.38,1.396,0.442,3.04,0.19,4.94c-0.255,1.9-0.76,4.213-1.52,6.935c-0.76,2.726-1.743,5.985-2.945,9.785
		c-1.205,3.8-2.565,8.36-4.085,13.68c-0.888,3.547-0.825,5.257,0.19,5.13c1.012-0.125,2.627-1.393,4.845-3.8
		c2.214-2.404,4.875-5.54,7.98-9.405c3.102-3.862,6.237-7.82,9.405-11.875c0,0.127,0.19,0.413,0.57,0.855
		c0.38,0.445,0.694,1.045,0.95,1.805c0.252,0.76,0.285,1.647,0.095,2.66c-0.19,1.016-0.73,2.09-1.615,3.23
		c-2.535,3.04-4.75,5.733-6.65,8.075c-1.9,2.345-3.738,4.465-5.51,6.365c-1.775,1.9-3.58,3.675-5.415,5.32
		c-1.838,1.647-3.96,3.295-6.365,4.94c-1.396,1.015-2.945,1.585-4.655,1.71s-3.358-0.063-4.94-0.57
		c-1.585-0.505-2.915-1.33-3.99-2.47c-1.078-1.14-1.553-2.47-1.425-3.99c0.252-4.053,0.979-8.17,2.185-12.35
		c1.203-4.18,2.69-8.93,4.465-14.25c0.504-1.52,0.41-2.47-0.285-2.85c-0.698-0.38-1.68,0.127-2.945,1.52
		c-1.268,1.14-2.66,2.598-4.18,4.37c-1.52,1.775-3.01,3.61-4.465,5.51c-1.458,1.9-2.85,3.738-4.18,5.51
		c-1.33,1.775-2.44,3.295-3.325,4.56l-0.76,2.66c-1.52,5.575-3.167,9.058-4.94,10.45c-1.775,1.395-4.118,2.024-7.03,1.9
		c-1.9-0.125-3.387-0.76-4.465-1.9c-1.075-1.14-1.359-2.785-0.855-4.94c0.38-2.025,1.045-4.813,1.995-8.36
		c0.95-3.544,2.028-7.472,3.23-11.78c1.202-4.305,2.5-8.865,3.895-13.68c1.392-4.812,2.817-9.435,4.275-13.87
		c1.455-4.433,2.85-8.55,4.18-12.35c1.33-3.8,2.565-6.902,3.705-9.31c0.632-1.52,1.739-2.532,3.325-3.04
		c1.583-0.505,3.23-0.728,4.94-0.665c1.71,0.065,3.165,0.35,4.37,0.855c1.202,0.508,1.74,1.015,1.615,1.52L847.306,474.949z"/>
	<path fill="#FFFFFF" d="M891.953,437.898c1.14-1.9,3.354-3.767,6.65-5.605c3.292-1.834,7.03-3.07,11.21-3.705
		c3.42-6.332,8.55-11.557,15.39-15.675c6.84-4.115,14.313-6.3,22.42-6.555c8.612-0.252,15.391,1.49,20.33,5.225
		c4.939,3.738,8.422,8.488,10.45,14.25c2.024,5.765,2.85,12.065,2.47,18.905c-0.38,6.84-1.585,13.237-3.609,19.19
		c-2.28,6.335-5.131,12.288-8.551,17.86c-3.42,5.575-7.537,10.42-12.35,14.535c-4.815,4.118-10.355,7.377-16.625,9.785
		c-6.27,2.405-13.271,3.482-20.995,3.23c-7.728,0-14.125-1.458-19.19-4.37c-5.068-2.913-9.058-6.522-11.97-10.83
		c-2.912-4.305-4.845-8.93-5.795-13.87c-0.95-4.94-1.169-9.373-0.665-13.3c0.635-4.18,1.775-8.897,3.42-14.155
		C886.191,447.559,888.661,442.586,891.953,437.898z M949.143,411.679c-1.9,0-4.055,0.73-6.46,2.185
		c-2.408,1.458-4.845,3.485-7.315,6.08c-2.47,2.598-4.75,5.576-6.84,8.93c-2.09,3.357-3.865,6.905-5.32,10.64
		c-1.458,3.737-2.375,7.6-2.755,11.59c-0.38,3.99,0,7.823,1.14,11.495c-4.688-1.393-8.141-3.735-10.355-7.03
		c-2.218-3.292-3.643-6.774-4.275-10.45c-1.268,3.675-2.313,7.665-3.135,11.97c-0.825,4.308-1.33,8.615-1.52,12.92
		c-0.19,4.308-0.033,8.455,0.475,12.445c0.505,3.99,1.425,7.505,2.755,10.545s3.07,5.51,5.225,7.41c2.152,1.9,4.875,2.85,8.17,2.85
		c4.685,0,9.087-1.297,13.205-3.895c4.115-2.595,7.885-6.015,11.305-10.26c3.42-4.242,6.46-9.12,9.12-14.63
		c2.66-5.51,4.845-11.145,6.555-16.91c1.71-5.762,2.851-11.367,3.42-16.815c0.57-5.445,0.476-10.322-0.285-14.63
		c-0.76-4.305-2.217-7.79-4.37-10.45C955.728,413.008,952.815,411.679,949.143,411.679z"/>
	<path fill="#FFFFFF" d="M1034.643,454.048c0.379,3.42-0.476,7.538-2.565,12.35c-2.091,4.815-4.845,9.533-8.265,14.155
		c-3.42,4.625-7.125,8.868-11.115,12.73c-3.99,3.865-7.695,6.62-11.115,8.265c-3.168,1.393-6.24,1.645-9.215,0.76
		c-2.979-0.885-4.973-2.975-5.985-6.27c-0.636-2.28-1.173-5.225-1.614-8.835c-0.445-3.61-0.666-7.505-0.666-11.685
		s0.221-8.455,0.666-12.825c0.441-4.37,1.234-8.39,2.375-12.065c0.379-1.52,1.359-2.565,2.944-3.135
		c1.583-0.57,3.197-0.79,4.845-0.665c1.645,0.127,3.135,0.445,4.465,0.95c1.33,0.508,1.996,1.016,1.996,1.52
		c-0.761,3.295-1.363,6.935-1.806,10.925c-0.445,3.99-0.698,7.823-0.76,11.495c-0.065,3.675-0.032,7,0.095,9.975
		c0.125,2.978,0.314,5.101,0.57,6.365c0.76,3.42,1.52,5.1,2.279,5.035c0.76-0.063,2.215-1.235,4.371-3.515
		c1.52-1.645,3.068-3.735,4.654-6.27c1.582-2.532,3.04-5.288,4.37-8.265c1.33-2.975,2.438-5.985,3.325-9.025
		c0.885-3.04,1.425-5.92,1.615-8.645c0.189-2.722-0.066-5.13-0.76-7.22c-0.698-2.09-1.996-3.577-3.896-4.465
		c2.152-0.504,4.337-0.695,6.555-0.57c2.215,0.127,4.21,0.57,5.985,1.33c1.771,0.76,3.26,1.805,4.465,3.135
		C1033.659,450.914,1034.387,452.404,1034.643,454.048z"/>
	<path fill="#FFFFFF" d="M1063.33,501.168c-1.395,0.76-3.357,1.33-5.89,1.71c-2.536,0.38-5.163,0.348-7.886-0.095
		c-2.725-0.442-5.352-1.487-7.885-3.135c-2.535-1.645-4.436-4.18-5.699-7.6c-1.645-4.432-1.773-9.467-0.381-15.105
		c1.393-5.634,3.926-10.83,7.601-15.58c3.673-4.75,8.327-8.58,13.965-11.495c5.635-2.913,11.875-3.925,18.715-3.04
		c4.305,0.635,7.155,1.933,8.55,3.895c1.393,1.965,2.215,3.58,2.471,4.845c0.504,3.295-0.413,6.555-2.756,9.785
		c-2.345,3.23-5.352,6.05-9.024,8.455c-3.675,2.408-7.694,4.15-12.065,5.225c-4.369,1.078-8.33,1.172-11.875,0.285
		c-1.016,4.436-1.14,8.108-0.379,11.02c0.76,2.66,2.057,4.403,3.895,5.225c1.834,0.825,3.99,0.92,6.46,0.285
		c2.47-0.632,5.13-1.868,7.979-3.705c2.85-1.834,5.668-4.02,8.455-6.555c2.533-2.28,5.064-5.064,7.6-8.36
		c2.533-3.292,5.065-6.522,7.601-9.69c0,0.127,0.19,0.413,0.569,0.855c0.381,0.445,0.695,1.045,0.951,1.805
		c0.252,0.76,0.285,1.647,0.095,2.66c-0.19,1.016-0.73,2.09-1.615,3.23c-5.067,6.208-9.817,11.275-14.25,15.2
		C1074.096,495.216,1069.03,498.508,1063.33,501.168z M1070.36,450.818c-1.899,0.635-3.737,1.775-5.511,3.42
		c-1.774,1.647-3.484,3.61-5.129,5.89c-1.648,2.28-3.105,4.783-4.371,7.505c-1.268,2.726-2.345,5.415-3.229,8.075
		c2.66-0.76,5.382-1.962,8.171-3.61c2.784-1.645,5.287-3.45,7.504-5.415c2.215-1.962,3.957-4.02,5.226-6.175
		c1.265-2.152,1.835-4.18,1.71-6.08c0-0.885-0.223-1.868-0.665-2.945C1073.62,450.409,1072.385,450.186,1070.36,450.818z"/>
	<path fill="#FFFFFF" d="M1105.508,470.389l9.881-14.25c0.124-0.252,0.632-0.917,1.52-1.995c0.885-1.075,1.93-2.185,3.135-3.325
		c1.202-1.14,2.595-2.152,4.18-3.04c1.582-0.884,3.197-1.265,4.846-1.14c2.279,0.127,3.861,0.635,4.75,1.52
		c0.885,0.888,1.454,1.837,1.709,2.85c0.253,1.268,0.125,3.04-0.379,5.32c-0.508,2.28-1.174,4.72-1.996,7.315
		c-0.824,2.598-1.614,5.163-2.375,7.695c-0.76,2.536-1.268,4.688-1.52,6.46c-0.888,3.548-0.855,5.67,0.096,6.365
		c0.949,0.698,2.438,0.38,4.465-0.95c2.024-1.33,4.399-3.42,7.125-6.27c2.723-2.85,5.414-5.985,8.074-9.405
		c0,0.127,0.19,0.413,0.57,0.855c0.38,0.445,0.665,1.045,0.855,1.805c0.189,0.76,0.219,1.647,0.095,2.66
		c-0.128,1.016-0.636,2.09-1.521,3.23c-3.547,4.436-7.314,8.075-11.305,10.925s-8.645,4.275-13.965,4.275
		c-2.535,0-4.846-0.6-6.936-1.805c-2.09-1.202-3.324-3.197-3.705-5.985c0-0.76,0.125-1.834,0.381-3.23
		c0.252-1.393,0.632-2.88,1.14-4.465c0.505-1.583,1.013-3.23,1.521-4.94c0.504-1.71,0.949-3.198,1.33-4.465
		c0.632-1.9,0.727-2.879,0.285-2.945c-0.445-0.063-1.078,0.285-1.9,1.045c-0.826,0.76-1.681,1.71-2.565,2.85
		c-0.888,1.14-1.521,2.027-1.899,2.66c-1.141,2.156-2.726,4.721-4.75,7.695c-2.028,2.978-3.738,5.67-5.131,8.075l-1.14,4.37
		c-1.521,5.575-3.167,9.058-4.94,10.45c-1.775,1.395-4.117,2.024-7.029,1.9c-1.9-0.125-3.388-0.76-4.465-1.9
		c-1.075-1.14-1.359-2.785-0.855-4.94c0.635-3.04,1.396-6.428,2.28-10.165c0.888-3.735,1.933-7.63,3.135-11.685
		c1.202-4.052,2.499-8.075,3.896-12.065c1.393-3.99,2.912-7.82,4.56-11.495c0.632-1.52,1.739-2.565,3.325-3.135
		c1.582-0.57,3.23-0.79,4.939-0.665c1.711,0.127,3.165,0.445,4.37,0.95c1.202,0.508,1.739,1.016,1.615,1.52L1105.508,470.389z"/>
	<path fill="#FFFFFF" d="M1178.658,420.798c3.039-0.125,5.824,0.38,8.359,1.52c2.533,1.14,3.99,2.916,4.37,5.32
		c0.38,1.775,0.095,3.325-0.854,4.655c-0.951,1.33-2.313,2.375-4.086,3.135c-1.775,0.76-3.77,1.235-5.984,1.425
		c-2.218,0.19-4.402,0.033-6.555-0.475c3.292-0.632,5.539-1.71,6.744-3.23c1.203-1.52,1.93-2.975,2.186-4.37
		c0.125-1.265-0.128-2.28-0.76-3.04c-0.636-0.76-1.458-1.107-2.471-1.045c-1.016,0.065-2.154,0.698-3.42,1.9
		c-1.268,1.205-2.346,3.135-3.23,5.795c-1.015,2.915-2.09,6.018-3.229,9.31c-1.14,3.295-2.155,6.397-3.04,9.31l-11.02,40.09
		c4.813-1.393,9.752-3.862,14.82-7.41c5.064-3.544,10.26-8.93,15.58-16.15c0,0.127,0.189,0.413,0.569,0.855
		c0.38,0.445,0.694,1.045,0.95,1.805c0.252,0.76,0.285,1.68,0.095,2.755c-0.19,1.078-0.792,2.185-1.805,3.325
		c-4.056,5.576-8.963,10.041-14.726,13.395c-5.766,3.358-11.432,5.733-17.004,7.125l-5.701,20.9c-0.76,2.66-1.585,4.845-2.47,6.555
		c-0.888,1.71-1.837,3.007-2.85,3.895c-1.013,0.885-2.058,1.455-3.136,1.71c-1.074,0.252-2.185,0.38-3.324,0.38
		c-2.533-0.128-4.305-0.888-5.32-2.28c-1.012-1.396-1.074-3.357-0.189-5.89l7.41-24.32c-1.393-0.632-2.025-1.55-1.9-2.755
		c0.127-1.203,1.268-1.93,3.42-2.185l16.15-54.15c1.645-5.572,4.18-9.88,7.6-12.92
		C1167.258,422.699,1172.197,421.054,1178.658,420.798z"/>
	<path fill="#FFFFFF" d="M1194.428,487.489c-0.888,3.547-0.826,5.257,0.189,5.13c1.013-0.125,2.627-1.393,4.846-3.8
		c2.215-2.404,4.875-5.54,7.979-9.405c3.103-3.862,6.237-7.82,9.405-11.875c0,0.127,0.189,0.413,0.57,0.855
		c0.379,0.445,0.694,1.045,0.949,1.805c0.252,0.76,0.285,1.647,0.096,2.66c-0.19,1.016-0.73,2.09-1.615,3.23
		c-2.535,3.04-4.75,5.733-6.65,8.075c-1.9,2.345-3.737,4.465-5.51,6.365c-1.775,1.9-3.58,3.675-5.415,5.32
		c-1.837,1.647-3.96,3.295-6.364,4.94c-1.269,1.015-2.789,1.585-4.561,1.71c-1.775,0.125-3.42-0.063-4.939-0.57
		c-1.521-0.505-2.818-1.33-3.896-2.47c-1.075-1.14-1.55-2.47-1.425-3.99c0.255-2.913,0.697-5.953,1.33-9.12
		c0.635-3.165,1.457-6.585,2.47-10.26c1.265-4.685,2.627-9.435,4.085-14.25c1.455-4.812,2.879-9.435,4.275-13.87
		c1.392-4.433,2.754-8.518,4.084-12.255c1.33-3.734,2.5-6.87,3.516-9.405c0.633-1.52,1.771-2.532,3.42-3.04
		c1.645-0.505,3.293-0.728,4.939-0.665c1.645,0.065,3.07,0.35,4.275,0.855c1.203,0.508,1.74,1.015,1.615,1.52L1194.428,487.489z"/>
	<path fill="#FFFFFF" d="M1227.484,502.878c-5.067,0-8.93-1.392-11.59-4.18c-2.66-2.785-4.242-6.27-4.75-10.45
		c-0.504-4.18,0-8.708,1.521-13.585c1.521-4.875,3.896-9.405,7.125-13.585c3.229-4.18,7.249-7.663,12.065-10.45
		c4.812-2.785,10.26-4.18,16.34-4.18c4.684,0,8.232,1.172,10.64,3.515c2.405,2.346,3.862,5.353,4.37,9.025
		c0.504,3.675,0.157,7.728-1.045,12.16c-1.205,4.436-3.072,8.678-5.605,12.73c1.772,0,3.61-0.665,5.51-1.995
		c1.9-1.33,3.673-2.879,5.32-4.655c1.645-1.772,3.164-3.577,4.561-5.415c1.393-1.834,2.531-3.26,3.42-4.275
		c0,0.127,0.156,0.413,0.475,0.855c0.314,0.445,0.57,1.045,0.76,1.805c0.19,0.76,0.22,1.647,0.096,2.66
		c-0.128,1.016-0.636,2.09-1.521,3.23c-0.636,0.635-1.14,1.268-1.521,1.9c-0.379,0.635-0.824,1.268-1.33,1.9
		c-1.52,1.775-3.072,3.325-4.654,4.655c-1.586,1.33-3.01,2.313-4.275,2.945c-4.18,2.155-8.107,3.167-11.779,3.04
		c-3.168,3.675-6.777,6.65-10.83,8.93C1236.729,501.739,1232.297,502.878,1227.484,502.878z M1230.145,496.229
		c1.772,0,3.545-1.009,5.32-3.028c1.772-2.019,3.545-4.477,5.32-7.38c-1.9-1.891-3.23-4.287-3.99-7.19
		c-0.38-1.639-0.285-3.055,0.285-4.254s1.393-2.144,2.47-2.838c1.075-0.695,2.28-1.042,3.61-1.042s2.5,0.38,3.515,1.134
		c0.885-2.773,1.615-5.421,2.185-7.944c0.57-2.523,0.918-4.794,1.045-6.813c0.125-2.019-0.032-3.625-0.475-4.824
		c-0.445-1.199-1.172-1.799-2.186-1.799c-2.279,0-4.625,1.137-7.029,3.408c-2.408,2.271-4.593,5.109-6.555,8.514
		c-1.966,3.405-3.676,7.095-5.131,11.068c-1.457,3.975-2.407,7.665-2.85,11.07c-0.445,3.405-0.35,6.243,0.285,8.514
		C1226.598,495.094,1227.99,496.229,1230.145,496.229z"/>
	<path fill="#FFFFFF" d="M1351.174,454.048c0.379,3.42-0.476,7.538-2.565,12.35c-2.09,4.815-4.815,9.533-8.17,14.155
		c-3.358,4.625-7.03,8.868-11.021,12.73c-3.99,3.865-7.694,6.62-11.115,8.265c-1.646,0.76-3.357,1.235-5.129,1.425
		c-1.775,0.19-3.42,0.062-4.94-0.38c-1.521-0.442-2.851-1.203-3.989-2.28c-1.141-1.075-1.9-2.565-2.281-4.465
		c-0.379-1.772-0.569-4.085-0.569-6.935s0.253-5.92,0.76-9.215c-2.027,2.535-3.865,4.75-5.51,6.65c-1.647,1.9-3.229,3.675-4.75,5.32
		c-1.521,1.648-3.136,3.2-4.845,4.655c-1.711,1.458-3.705,2.945-5.985,4.465c-1.268,1.015-2.788,1.585-4.56,1.71
		c-1.775,0.125-3.42-0.063-4.94-0.57c-1.521-0.505-2.784-1.33-3.8-2.47c-1.013-1.14-1.455-2.47-1.33-3.99
		c0.38-7.22,1.9-14.725,4.561-22.515c2.659-7.79,5.572-15.23,8.739-22.325c0.632-1.52,1.772-2.532,3.42-3.04
		c1.646-0.504,3.325-0.727,5.035-0.665c1.71,0.065,3.165,0.351,4.37,0.855c1.202,0.508,1.74,1.016,1.615,1.52l-11.4,38.19
		c-0.888,3.42-0.855,5.13,0.096,5.13c0.949,0,2.469-1.14,4.559-3.42c2.091-2.28,4.623-5.288,7.601-9.025
		c2.975-3.734,5.985-7.567,9.024-11.495c1.393-6.333,3.166-12.413,5.32-18.24c0.505-1.52,1.551-2.565,3.135-3.135
		c1.583-0.57,3.197-0.79,4.846-0.665c1.645,0.127,3.102,0.445,4.37,0.95c1.265,0.508,1.899,1.016,1.899,1.52
		c-0.76,3.295-1.647,6.935-2.66,10.925c-1.015,3.99-1.899,7.855-2.66,11.59c-0.76,3.738-1.361,7.125-1.805,10.165
		c-0.445,3.04-0.54,5.195-0.285,6.46c0.633,3.42,1.33,5.068,2.09,4.94c0.761-0.125,2.215-1.33,4.371-3.61
		c2.404-2.405,4.779-5.795,7.125-10.165c2.342-4.37,4.18-8.835,5.51-13.395s1.834-8.74,1.52-12.54c-0.317-3.8-1.87-6.395-4.654-7.79
		c2.152-0.504,4.305-0.695,6.459-0.57c2.152,0.127,4.148,0.57,5.986,1.33c1.834,0.76,3.354,1.805,4.559,3.135
		C1350.381,450.914,1351.046,452.404,1351.174,454.048z"/>
</g>
<g>
	
		<linearGradient id="SVGID_8_" gradientUnits="userSpaceOnUse" x1="961.2686" y1="-2979.8035" x2="961.2686" y2="-3040.0457" gradientTransform="matrix(1 0 0 -1 0 -2695.2754)">
		<stop  offset="0" style="stop-color:#301476"/>
		<stop  offset="0.6059" style="stop-color:#54446D"/>
	</linearGradient>
	<path fill="url(#SVGID_8_)" stroke="#000000" stroke-width="0.12" d="M668.387,314.651c0-16.692,131.236-30.123,292.881-30.123
		c162.443,0,293.689,13.431,292.88,30.123c0.81,16.69-130.437,30.119-292.88,30.119
		C799.623,344.771,668.387,331.342,668.387,314.651L668.387,314.651z"/>
</g>
<path fill="#946B89" stroke="#946B89" stroke-width="0.12" d="M678.957,309.408c-56.102,20.52,84.953,40.662,281.287,40.662
	c196.344,0,337.385-20.142,281.298-40.662C1139.764,339.427,780.736,339.427,678.957,309.408z"/>
<path fill="#FFFFFF" stroke="#FFFFFF" stroke-width="6" d="M949.069,284.528c-164.353,2.426-292.69,16.965-292.69,36.378
	c5.177,48.453,600.672,48.453,605.853,0C1262.231,301.494,1123.615,284.528,949.069,284.528L949.069,284.528z M950.332,289.38
	c168.68,0,301.662,14.541,301.662,31.526c0,41.191-582.857,41.191-582.857,0C669.137,303.921,791.801,289.38,950.332,289.38
	L950.332,289.38z"/>
<path fill="#FFFFFF" stroke="#FFFFFF" stroke-width="6" d="M1262.231,299.053v22.804c0-20.099-135.433-36.329-302.925-36.329
	c-167.496,0-302.928,16.229-302.928,36.329v-22.804c0-20.098,135.432-36.328,302.928-36.328
	C1126.799,262.725,1262.231,278.955,1262.231,299.053z"/>
<g>
	<rect x="923" y="243" fill="#FFFFFF" width="72" height="0"/>
	<g>
		<path fill="#FFFFFF" d="M995,233c-24,0-48,0-72,0c-12.897,0-12.897,20,0,20c24,0,48,0,72,0C1007.897,253,1007.897,233,995,233
			c-24,0-48,0-72,0c-12.897,0-12.897,20,0,20c24,0,48,0,72,0C1007.897,253,1007.897,233,995,233z"/>
	</g>
</g>
<rect x="922" y="244" fill="#FFFFFF" stroke="#FFFFFF" stroke-width="4" width="10" height="27"/>
<rect x="986" y="244" fill="#FFFFFF" stroke="#FFFFFF" stroke-width="4" width="10" height="27"/>
</svg>
