<?xml version="1.0" encoding="utf-8"?>
<!-- Generator: Adobe Illustrator 16.0.0, SVG Export Plug-In . SVG Version: 6.00 Build 0)  -->
<!DOCTYPE svg PUBLIC "-//W3C//DTD SVG 1.1//EN" "http://www.w3.org/Graphics/SVG/1.1/DTD/svg11.dtd">
<svg version="1.1" id="Layer_1" xmlns="http://www.w3.org/2000/svg" xmlns:xlink="http://www.w3.org/1999/xlink" x="0px" y="0px"
	 width="1920px" height="1080px" viewBox="0 0 1920 1080" enable-background="new 0 0 1920 1080" xml:space="preserve">
<path d="M488.872,134.683l116.008,784.94l2.023,12.159l3.549,12.157l3.163,8.105l4.941,6.965l8.992,9.499l9.879,9.117l10.129,5.953
	l7.982,4.431l10.637,3.294l14.943,2.408c0,0,10.892,0.251,12.664,0.251c1.9,0,22.289-2.152,22.289-2.152l333.201-52.43l14.563-4.938
	l7.221-4.181l11.144-9.37l8.99-10.512l5.445-9.878l4.687-14.693l0.763-19.501l-0.763-13.425l-3.673-10.892L938.079,92.003
	l-5.698-18.11l-7.219-14.185l-13.551-13.55l-12.16-6.459L880.332,34l-16.845,0.507l-28.114,1.14L549.914,50.084l-25.58,6.712
	l-15.703,11.651l-9.623,14.437l-7.477,16.59l-2.911,17.097l0.252,13.171V134.683z"/>
<linearGradient id="SVGID_1_" gradientUnits="userSpaceOnUse" x1="404.4102" y1="286.5376" x2="1167.332" y2="727.0107">
	<stop  offset="0" style="stop-color:#A66B8E"/>
	<stop  offset="1" style="stop-color:#4F4EAF"/>
</linearGradient>
<path fill="url(#SVGID_1_)" stroke="#000000" stroke-width="0.78" d="M593.988,61.229l-42.932,3.04l-12.664,3.673l-10.642,7.472
	l-6.712,9.118l-5.189,13.932l0.252,13.931l2.532,17.351l119.3,792.54l5.192,14.438c0,0,6.712,6.962,6.712,8.612
	c0,1.517,10.132,8.484,10.132,8.484s9.498,3.925,11.144,5.192c1.521,1.268,11.271,3.041,12.412,3.041
	c1.014,0,10.764,1.897,10.764,1.897l17.858-2.154l331.681-50.909l14.056-5.447l6.711-5.194l7.473-8.231l5.445-12.664l1.522-14.563
	l-0.762-13.425L918.707,82.126l-2.155-10.259l-5.194-8.612l-6.203-6.712l-5.703-3.927l-7.977-3.799l-7.976-2.152l-11.149-1.014
	l-34.445,1.9l-8.738,0.253l-3.671,1.773l-1.522,3.546l-1.012,4.938l0.503,7.22v4.685l-2.783,4.306l-7.345,3.166l-11.904,1.393
	l-175.908,8.232l-7.729,0.252l-5.445-2.532l-3.924-4.433l-1.266-4.685l-0.762-5.7l-2.659-4.305l-3.291-2.659L593.988,61.229z"/>
<path fill="#EA8B6C" d="M527.502,423.811l-8.359-2.28l-7.346-0.633l-10.258,1.393l-7.979,4.052l-8.488,5.446l-10.638,11.399
	l-7.979,14.563l-1.897,11.018l0.378,13.551l4.432,12.413l6.206,13.17c0,0,12.412,12.41,13.936,13.931
	c1.392,1.52,13.167,8.739,13.167,8.739l12.031,7.725l5.446-2.913l5.573-1.139l6.585,1.899l8.357,4.686l6.205,5.574h2.66
	l-8.482-70.289l-2.538-29.635l-4.051-16.083L527.502,423.811z"/>
<polygon fill="#EA8B6C" points="514.708,538.297 505.21,544.124 492.801,554.76 485.072,573.378 484.313,585.535 489.51,599.72 
	497.863,616.184 505.21,625.429 520.535,637.84 538.515,646.957 551.688,651.772 565.238,653.924 549.535,546.404 546.875,546.404 
	540.67,540.83 532.313,536.144 525.728,534.245 520.154,535.384 "/>
<polygon fill="#EA8B6C" points="547.636,673.679 534.464,676.594 519.143,687.23 510.02,700.78 511.414,718.639 521.672,737.383 
	533.326,752.327 549.535,770.311 563.34,781.201 575.117,783.862 584.235,783.099 568.912,676.594 "/>
<path fill="#EA8B6C" d="M1476.188,716.866c0,0,23.81,15.196,23.81,16.464c0,1.391,20.519,13.804,20.519,13.804l8.485,4.81
	l7.979,11.399l5.699,13.805l1.266,23.81l-1.266,24.314c0,0-4.055,21.149-4.941,22.67c-0.758,1.644-9.75,32.675-10.512,33.687
	c-0.884,1.013-15.07,32.547-15.07,32.547l-17.855,33.436c0,0-30.014,46.098-30.521,47.364c-0.506,1.265-23.555,32.04-23.555,32.04
	l-16.337,13.93l-169.958,0.255c0,0-12.665-5.701-16.461-5.701c-3.929,0-55.22-6.205-56.738-6.205
	c-1.52,0-63.576-10.764-63.576-10.764s-39.642-7.598-41.159-7.598c-1.646,0-41.92-10.512-41.92-10.512s-38.626-18.11-40.146-18.11
	s-33.307-19.758-33.307-19.758l-8.359-7.472l97.01-15.702l14.563-4.938l7.221-4.181l11.144-9.37l8.99-10.512l5.445-9.878
	l4.687-14.693l0.763-19.501l-0.763-13.425l-3.673-10.892l-91.688-431.603l0.886,0.126l0,0l0.886,0.38 M1007.733,410.894
	c23.05,8.865,39.767,17.35,58.638,26.469c5.696,2.659,31.531,11.397,31.531,11.397l4.687,2.66l1.522-14.058l-38.248-40.273
	c0,0-9.878-19.25-10.384-21.276c-0.507-2.027-1.016-16.591-1.016-16.591l-11.9-4.052l-27.863-14.058l-15.579-11.903l-10.892-11.399
	l-30.014-133.482l22.798,4.179l22.29,9.244l30.013,16.59c0,0,18.617,11.905,20.643,14.058c2.026,2.026,20.134,11.271,22.288,12.918
	c2.026,1.52,26.342,6.711,26.342,6.711l21.277,13.425l11.399,15.069l13.424,14.945l62.563,65.222l23.809,23.302
	c0,0,24.315,12.918,25.328,14.944c1.142,2.153,27.481,27.988,27.481,27.988l43.948,65.222l30.011,45.465l37.743,53.316
	l18.741,34.195l16.972,46.479l11.904,19.755l28.999,29.509"/>
<linearGradient id="SVGID_2_" gradientUnits="userSpaceOnUse" x1="402.3223" y1="286.5386" x2="1165.2424" y2="727.0107">
	<stop  offset="0" style="stop-color:#FFFFFF"/>
	<stop  offset="1" style="stop-color:#004EAF"/>
</linearGradient>
<path opacity="0.3" fill="url(#SVGID_2_)" stroke="#000000" stroke-width="0.78" d="M591.9,61.229l-42.934,3.04l-12.662,3.673
	l-10.643,7.472l-6.71,9.118l-5.19,13.932l0.252,13.931l2.531,17.351l119.299,792.54l5.193,14.438c0,0,6.712,6.962,6.712,8.612
	c0,1.517,10.131,8.484,10.131,8.484s9.498,3.925,11.145,5.192c1.521,1.268,11.272,3.041,12.413,3.041
	c1.013,0,10.765,1.897,10.765,1.897l17.858-2.154l331.68-50.909l14.056-5.447l6.712-5.194l7.471-8.231l5.447-12.664l1.52-14.563
	l-0.76-13.425L916.617,82.126l-2.154-10.259l-5.194-8.612l-6.203-6.712l-5.704-3.927l-7.977-3.799l-7.975-2.152l-11.149-1.014
	l-34.446,1.9l-8.736,0.253l-3.673,1.773l-1.521,3.546l-1.014,4.938l0.506,7.22v4.685l-2.785,4.306l-7.345,3.166l-11.903,1.393
	l-175.909,8.232l-7.727,0.252l-5.447-2.532l-3.925-4.433l-1.266-4.685l-0.76-5.7l-2.658-4.305l-3.293-2.659L591.9,61.229z"/>
</svg>
