<?xml version="1.0" encoding="utf-8"?>
<!-- Generator: Adobe Illustrator 16.0.0, SVG Export Plug-In . SVG Version: 6.00 Build 0)  -->
<!DOCTYPE svg PUBLIC "-//W3C//DTD SVG 1.1//EN" "http://www.w3.org/Graphics/SVG/1.1/DTD/svg11.dtd">
<svg version="1.1" id="Layer_1" xmlns="http://www.w3.org/2000/svg" xmlns:xlink="http://www.w3.org/1999/xlink" x="0px" y="0px"
	 width="2000px" height="2000px" viewBox="0 0 2000 2000" enable-background="new 0 0 2000 2000" xml:space="preserve">
<radialGradient id="SVGID_1_" cx="2020" cy="-502.25" r="250.5" gradientTransform="matrix(3.996 0 0 3.996 -7071.9199 3006.9922)" gradientUnits="userSpaceOnUse">
	<stop  offset="0" style="stop-color:#FFFFFF"/>
	<stop  offset="1" style="stop-color:#000000"/>
</radialGradient>
<path fill-rule="evenodd" clip-rule="evenodd" fill="none" stroke="url(#SVGID_1_)" d="M1999,1000c0,549.419-449.585,999-999,999
	S1,1549.419,1,1000C1,450.501,450.585,1.002,1000,1.002S1999,450.501,1999,1000L1999,1000z"/>
<g>
	
		<radialGradient id="SVGID_2_" cx="2020" cy="-502.25" r="250" gradientTransform="matrix(3.996 0 0 3.996 -7071.9199 3006.9922)" gradientUnits="userSpaceOnUse">
		<stop  offset="0" style="stop-color:#FEB054"/>
		<stop  offset="1" style="stop-color:#56466D"/>
	</radialGradient>
	<path fill="url(#SVGID_2_)" stroke="#000000" stroke-width="0.12" d="M999.992,1C448.81,1,1,448.821,1,1000
		c0,551.165,447.81,999,998.992,999c551.175,0,999.008-447.835,999.008-999C1999,448.821,1551.167,1,999.992,1L999.992,1z"/>
</g>
<path fill="#FFFFFF" stroke="#FFFFFF" d="M1000.004,1C450.425,1,1,450.501,1,1000c0,549.419,449.425,999,999.004,999
	c549.415,0,998.996-449.581,998.996-999C1999,450.501,1549.419,1,1000.004,1L1000.004,1z M1000.004,70.917
	c509.412,0,929.078,409.584,929.078,929.083s-419.666,929.082-929.078,929.082C490.42,1929.082,70.918,1519.5,70.918,1000
	S490.42,70.917,1000.004,70.917L1000.004,70.917z"/>
<g>
	<linearGradient id="SVGID_3_" gradientUnits="userSpaceOnUse" x1="1000.8389" y1="1382.5957" x2="1000.8389" y2="1134.3359">
		<stop  offset="0" style="stop-color:#301476"/>
		<stop  offset="0.6059" style="stop-color:#54446D"/>
	</linearGradient>
	<path fill="url(#SVGID_3_)" stroke="#000000" stroke-width="0.12" d="M428.583,1258.458c0,68.787,256.419,124.138,572.251,124.138
		c317.394,0,573.832-55.351,572.252-124.138c1.58-68.782-254.858-124.122-572.252-124.122
		C685.003,1134.336,428.583,1189.676,428.583,1258.458L428.583,1258.458z"/>
</g>
<path fill="#946B89" stroke="#946B89" stroke-width="6" d="M452.845,1264.46c-109.617-84.562,165.986-167.568,549.599-167.568
	c383.631,0,659.207,83.007,549.621,167.568C1353.201,1140.752,651.708,1140.752,452.845,1264.46z"/>
<path fill="#FFFFFF" stroke="#FFFFFF" stroke-width="6" d="M979.989,1072.438c-321.124,9.998-571.881,69.914-571.881,149.912
	c10.115,199.675,1173.638,199.675,1183.76,0C1591.868,1142.352,1321.03,1072.438,979.989,1072.438L979.989,1072.438z
	 M982.455,1092.433c329.58,0,589.41,59.925,589.41,129.917c0,169.752-1138.829,169.752-1138.829,0
	C433.036,1152.357,672.707,1092.433,982.455,1092.433L982.455,1092.433z"/>
<path fill="#FFFFFF" d="M1573.087,1344.538c-151.868,160.325-994.298,160.325-1146.193,0v403.329
	c335.086,286.894,809.549,286.894,1146.193,0V1344.538z"/>
<linearGradient id="SVGID_4_" gradientUnits="userSpaceOnUse" x1="569.3843" y1="1648.2529" x2="494.2251" y2="1648.2529">
	<stop  offset="0" style="stop-color:#EA8B6C"/>
	<stop  offset="1" style="stop-color:#FEB054"/>
</linearGradient>
<path fill="url(#SVGID_4_)" d="M531.82,1479.142c20.335,0,37.564,37.593,37.564,84.563v253.658
	c-26.606-12.513-50.106-26.607-75.159-42.279v-234.879C494.225,1505.775,511.458,1479.142,531.82,1479.142z"/>
<linearGradient id="SVGID_5_" gradientUnits="userSpaceOnUse" x1="796.438" y1="1714.208" x2="686.8213" y2="1714.208">
	<stop  offset="0.5" style="stop-color:#EA8B6C"/>
	<stop  offset="1" style="stop-color:#FEB054"/>
</linearGradient>
<path fill="url(#SVGID_5_)" d="M741.618,1527.694c31.344,0,54.82,36.011,54.82,79.846v294.386
	c-37.595-7.824-73.606-18.784-109.617-32.878v-275.603c0-42.28,31.32-73.575,65.754-65.751"/>
<path fill="#EA8B6C" d="M1073.591,1609.121v313.167c-48.55,3.134-98.652,3.134-147.205,0v-313.167
	C924.833,1510.466,1075.147,1510.466,1073.591,1609.121z"/>
<linearGradient id="SVGID_6_" gradientUnits="userSpaceOnUse" x1="1203.5459" y1="1714.209" x2="1313.1553" y2="1714.209">
	<stop  offset="0.5" style="stop-color:#EA8B6C"/>
	<stop  offset="1" style="stop-color:#FEB054"/>
</linearGradient>
<path fill="url(#SVGID_6_)" d="M1247.404,1527.694c34.431-7.824,65.751,23.471,65.751,65.751v275.603
	c-36.011,14.094-72.021,25.054-109.609,32.878V1607.54c0-43.835,23.496-79.846,54.82-79.846"/>
<linearGradient id="SVGID_7_" gradientUnits="userSpaceOnUse" x1="1430.5967" y1="1648.252" x2="1505.752" y2="1648.252">
	<stop  offset="0" style="stop-color:#EA8B6C"/>
	<stop  offset="1" style="stop-color:#FEB054"/>
</linearGradient>
<path fill="url(#SVGID_7_)" d="M1505.752,1540.205c0-34.43-17.202-61.063-37.564-61.063s-37.591,37.593-37.591,84.563v253.658
	c25.049-12.513,50.102-26.607,75.155-42.279V1540.205z"/>
<path fill="#FFFFFF" stroke="#FFFFFF" stroke-width="6" d="M1591.868,1316.324v-93.975c0,82.827-264.617,149.71-591.876,149.71
	c-327.266,0-591.884-66.883-591.884-149.71v93.975c0,82.825,264.618,149.709,591.884,149.709
	C1327.251,1466.033,1591.868,1399.149,1591.868,1316.324z"/>
<g>
	<path fill="#FFFFFF" d="M455.965,737.919c12.907,2.788,21.887,6.074,26.953,9.87c5.061,3.796,7.973,7.592,8.731,11.389
		c-22.272-3.797-42.517-6.074-60.739-6.834c-18.222-0.759-34.925-0.249-50.11,1.519c4.301,2.787,7.148,5.949,8.542,9.49
		c1.388,3.547,1.833,6.833,1.329,9.87c-3.037,12.658-6.643,26.763-10.819,42.328c-4.175,15.564-8.416,31.004-12.717,46.314
		c-4.306,15.315-8.352,29.61-12.148,42.896c-3.796,13.287-6.833,24.106-9.111,32.458c-6.584-0.759-12.658-1.964-18.222-3.607
		c-5.569-1.648-10.125-3.861-13.666-6.643c-3.547-2.782-5.949-6.199-7.212-10.25c-1.269-4.045-0.759-8.98,1.518-14.805
		c2.527-6.578,5.819-15.755,9.87-27.523c4.046-11.768,8.542-24.485,13.477-38.151c4.936-13.666,9.93-27.522,14.995-41.569
		c5.061-14.045,9.741-26.632,14.047-37.772c-18.981,3.796-34.925,9.052-47.832,15.754c-12.907,6.709-22.967,13.922-30.18,21.639
		c-7.214,7.723-11.769,15.315-13.667,22.777c-1.898,7.468-1.329,13.607,1.708,18.412c-11.133-1.009-19.989-3.287-26.573-6.833
		c-6.579-3.542-11.389-7.593-14.426-12.148c-3.037-4.556-4.365-9.361-3.985-14.426c0.38-5.06,2.088-9.491,5.125-13.287
		c6.329-7.842,16.644-15.813,30.938-23.917c14.295-8.096,31.443-14.995,51.439-20.689c19.989-5.693,42.138-9.359,66.434-11.008
		C403.958,731.531,429.393,733.115,455.965,737.919z"/>
	<path fill="#FFFFFF" d="M445.713,860.917l19.741-28.471c0.249-0.505,1.263-1.833,3.036-3.986c1.768-2.147,3.855-4.366,6.264-6.644
		c2.402-2.277,5.184-4.3,8.352-6.074c3.161-1.767,6.388-2.527,9.68-2.277c4.556,0.255,7.717,1.27,9.49,3.037
		c1.768,1.774,2.906,3.671,3.417,5.693c0.504,2.534,0.25,6.074-0.759,10.63c-1.015,4.555-2.343,9.431-3.986,14.615
		c-1.649,5.19-3.226,10.315-4.745,15.374c-1.518,5.066-2.533,9.367-3.037,12.907c-1.773,7.088-1.708,11.33,0.19,12.718
		c1.897,1.394,4.87,0.759,8.92-1.898c4.046-2.658,8.791-6.833,14.236-12.528c5.44-5.693,10.819-11.958,16.134-18.791
		c0,0.254,0.379,0.824,1.139,1.708c0.759,0.89,1.329,2.088,1.708,3.607c0.38,1.518,0.439,3.292,0.19,5.314
		c-0.256,2.029-1.27,4.176-3.037,6.454c-7.088,8.862-14.615,16.134-22.588,21.829c-7.971,5.694-17.272,8.542-27.901,8.542
		c-5.066,0-9.681-1.198-13.856-3.607c-4.175-2.402-6.644-6.388-7.403-11.958c0-1.518,0.249-3.666,0.759-6.454
		c0.504-2.783,1.263-5.754,2.278-8.921c1.009-3.162,2.022-6.454,3.037-9.87c1.009-3.417,1.898-6.389,2.657-8.921
		c1.264-3.796,1.453-5.753,0.57-5.884c-0.89-0.125-2.154,0.569-3.797,2.087c-1.649,1.518-3.357,3.417-5.125,5.695
		c-1.773,2.278-3.037,4.05-3.796,5.314c-2.278,4.307-5.445,9.432-9.49,15.375c-4.052,5.949-7.468,11.33-10.25,16.133l-2.278,8.731
		c-3.037,11.139-6.329,18.097-9.87,20.879c-3.547,2.788-8.228,4.045-14.047,3.796c-3.796-0.249-6.768-1.518-8.92-3.796
		c-2.147-2.278-2.716-5.563-1.708-9.87c1.27-6.074,2.788-12.843,4.556-20.31c1.772-7.462,3.861-15.245,6.263-23.347
		c2.402-8.096,4.994-16.134,7.782-24.106c2.782-7.972,5.818-15.624,9.111-22.967c1.264-3.037,3.476-5.125,6.643-6.264
		c3.162-1.139,6.454-1.578,9.871-1.329c3.416,0.255,6.323,0.89,8.73,1.897c2.403,1.015,3.476,2.029,3.227,3.037L445.713,860.917z"/>
	<path fill="#FFFFFF" d="M622.616,825.231c1.008,5.315-0.759,9.871-5.315,13.667c2.022,0.51,3.666,1.014,4.935,1.518
		c1.264,0.51,1.768,1.015,1.518,1.519c-2.028,9.366-4.555,18.352-7.592,26.953c-3.037,8.606-5.57,17.338-7.593,26.194
		c-1.773,7.088-1.708,10.504,0.19,10.25c1.898-0.25,4.994-2.782,9.3-7.593c4.3-4.804,9.425-11.068,15.375-18.791
		c5.943-7.717,12.083-15.624,18.411-23.726c0,0.254,0.379,0.824,1.138,1.708c0.76,0.89,1.389,2.088,1.899,3.607
		c0.504,1.518,0.569,3.292,0.19,5.314c-0.38,2.029-1.459,4.176-3.227,6.454c-5.065,6.074-9.491,11.454-13.287,16.134
		c-3.796,4.686-7.468,8.92-11.009,12.717c-3.546,3.797-7.153,7.343-10.819,10.63c-3.671,3.292-7.912,6.584-12.717,9.87
		c-2.533,2.028-5.38,3.292-8.542,3.796c-3.167,0.504-6.205,0.439-9.111-0.189c-2.912-0.629-5.446-1.708-7.593-3.227
		c-2.153-1.518-3.482-3.286-3.985-5.315c-0.51-1.767-0.701-3.666-0.57-5.694c0.125-2.023,0.314-4.176,0.57-6.453
		c-5.57,5.314-11.644,10.125-18.222,14.425c-6.584,4.306-12.782,6.454-18.602,6.454c-5.569,0-10-1.139-13.287-3.417
		c-3.286-2.278-5.439-5.185-6.453-8.731c-2.527-8.601-2.403-18.726,0.379-30.369c2.788-11.638,7.651-22.712,14.615-33.217
		c6.958-10.499,15.813-19.36,26.573-26.574c10.754-7.213,22.837-10.689,36.254-10.44c6.324,0,12.083,1.015,17.273,3.037
		C618.499,817.771,621.602,820.931,622.616,825.231z M579.719,843.454c6.578-1.263,11.703-3.286,15.375-6.074
		c3.666-2.781,6.009-6.074,7.022-9.87c0.25-1.518-0.445-3.161-2.088-4.935c-1.649-1.768-4.496-2.023-8.541-0.76
		c-5.57,1.519-10.95,6.015-16.134,13.477c-5.19,7.468-9.746,15.695-13.666,24.675c-3.927,8.986-6.898,17.783-8.921,26.384
		c-2.029,8.606-2.658,14.935-1.898,18.981c0.249,2.028,1.454,2.847,3.606,2.467c2.147-0.379,4.555-1.518,7.213-3.417
		c2.657-1.898,5.438-4.175,8.352-6.833c2.906-2.657,5.504-5.375,7.782-8.162c1.767-7.083,3.796-14.295,6.074-21.639
		c2.277-7.337,4.424-14.17,6.454-20.5C585.792,847.25,582.245,845.986,579.719,843.454z"/>
	<path fill="#FFFFFF" d="M663.233,908.369c1.009,2.787,2.717,4.811,5.125,6.074c2.402,1.27,4.614,1.898,6.644,1.898
		c4.301,0.255,7.972-0.628,11.009-2.658c3.037-2.022,5.184-4.175,6.453-6.454c2.527-3.286,2.906-6.453,1.14-9.49
		c-1.773-3.037-4.556-6.074-8.352-9.111c-3.796-3.036-8.292-6.132-13.477-9.3c-5.19-3.162-9.936-6.453-14.236-9.87
		c-4.306-3.417-7.723-7.023-10.25-10.819c-2.533-3.796-3.167-7.973-1.898-12.527c2.782-9.87,8.666-17.901,17.652-24.106
		c8.981-6.199,20.56-9.425,34.736-9.681c12.652-0.249,22.397,1.459,29.23,5.125c6.833,3.672,11.258,9.053,13.286,16.134
		c1.519,5.825,0.57,11.01-2.847,15.564c-3.417,4.555-7.848,8.103-13.286,10.629c-5.446,2.533-11.264,3.547-17.463,3.037
		c-6.204-0.503-11.33-3.037-15.374-7.592c6.578-1.264,11.703-4.491,15.374-9.681c3.667-5.185,5.885-10.309,6.644-15.375
		c0.249-4.805-0.89-7.527-3.417-8.162c-2.533-0.629-5.635-0.06-9.301,1.708c-3.671,1.774-7.403,4.241-11.199,7.403
		c-3.796,3.168-6.584,6.015-8.351,8.542c-2.788,3.547-3.737,6.708-2.848,9.49c0.884,2.789,2.848,5.38,5.885,7.782
		c3.037,2.408,6.702,4.811,11.008,7.212c4.3,2.409,8.476,5.001,12.527,7.783c4.046,2.788,7.592,5.949,10.629,9.49
		c3.037,3.547,4.68,7.593,4.936,12.148c0.759,8.862-2.847,16.389-10.819,22.588c-7.973,6.204-19.301,9.3-33.976,9.3
		c-6.833,0-13.038-0.694-18.602-2.088c-5.569-1.388-10.25-3.417-14.046-6.074c-3.796-2.658-6.512-5.754-8.162-9.3
		c-1.643-3.542-1.832-7.213-0.569-11.01c1.014-3.796,3.357-6.958,7.022-9.49c3.666-2.527,7.842-4.11,12.527-4.746
		c4.68-0.628,9.491-0.189,14.426,1.329c4.935,1.519,9.171,4.431,12.717,8.731c-6.583,1.269-11.958,3.226-16.133,5.884
		C663.424,901.346,661.964,904.573,663.233,908.369z"/>
	<path fill="#FFFFFF" d="M774.837,870.027c8.096-10.63,14.995-19.551,20.689-26.763c5.695-7.213,10.564-13.032,14.615-17.463
		c4.045-4.425,7.527-7.592,10.44-9.49c2.906-1.898,5.753-2.717,8.541-2.467c7.842,0,12.528,3.547,14.046,10.629
		c0.76,2.788,0.884,6.074,0.379,9.87c-0.509,3.797-1.518,8.417-3.037,13.856c-1.518,5.446-3.482,11.958-5.884,19.551
		c-2.408,7.592-5.125,16.703-8.162,27.333c-1.774,7.088-1.649,10.504,0.379,10.25c2.022-0.25,5.25-2.782,9.681-7.593
		c4.424-4.804,9.739-11.068,15.944-18.791c6.198-7.717,12.462-15.624,18.791-23.726c0,0.254,0.379,0.824,1.14,1.708
		c0.759,0.89,1.387,2.088,1.897,3.607c0.504,1.518,0.569,3.292,0.19,5.314c-0.379,2.029-1.459,4.176-3.227,6.454
		c-5.065,6.074-9.491,11.454-13.287,16.134c-3.796,4.686-7.468,8.92-11.009,12.717c-3.546,3.797-7.153,7.343-10.818,10.63
		c-3.672,3.292-7.913,6.584-12.718,9.87c-2.788,2.028-5.884,3.167-9.3,3.417c-3.417,0.249-6.709-0.125-9.871-1.139
		c-3.167-1.009-5.824-2.658-7.971-4.936c-2.153-2.278-3.103-4.935-2.847-7.972c0.503-8.097,1.957-16.324,4.364-24.675
		c2.403-8.352,5.375-17.842,8.922-28.472c1.008-3.037,0.819-4.935-0.57-5.694c-1.394-0.759-3.357,0.254-5.883,3.037
		c-2.533,2.278-5.315,5.19-8.352,8.731c-3.037,3.547-6.015,7.212-8.921,11.008c-2.913,3.796-5.695,7.468-8.352,11.01
		c-2.657,3.546-4.876,6.583-6.643,9.111l-1.519,5.314c-3.037,11.139-6.329,18.097-9.87,20.879
		c-3.547,2.788-8.227,4.045-14.046,3.796c-3.796-0.249-6.768-1.518-8.921-3.796c-2.147-2.278-2.716-5.563-1.708-9.87
		c0.759-4.046,2.087-9.616,3.986-16.704c1.898-7.082,4.052-14.93,6.454-23.536c2.402-8.601,4.994-17.712,7.782-27.333
		c2.781-9.614,5.629-18.85,8.542-27.711c2.906-8.856,5.694-17.083,8.352-24.675c2.657-7.593,5.125-13.791,7.402-18.602
		c1.264-3.037,3.475-5.06,6.643-6.074c3.162-1.009,6.454-1.454,9.87-1.329c3.417,0.131,6.324,0.7,8.732,1.708
		c2.402,1.015,3.476,2.028,3.227,3.037L774.837,870.027z"/>
	<path fill="#FFFFFF" d="M864.042,796.001c2.278-3.796,6.702-7.526,13.287-11.199c6.578-3.665,14.046-6.133,22.397-7.403
		c6.834-12.651,17.083-23.091,30.749-31.318c13.666-8.222,28.597-12.587,44.795-13.098c17.208-0.504,30.75,2.978,40.62,10.44
		c9.869,7.468,16.826,16.958,20.879,28.472c4.045,11.519,5.693,24.105,4.935,37.772c-0.759,13.666-3.167,26.448-7.211,38.342
		c-4.557,12.657-10.252,24.55-17.085,35.684c-6.833,11.14-15.059,20.82-24.674,29.042c-9.621,8.227-20.689,14.739-33.217,19.55
		c-12.527,4.805-26.515,6.958-41.948,6.454c-15.439,0-28.223-2.912-38.341-8.73c-10.126-5.819-18.097-13.032-23.917-21.639
		c-5.818-8.601-9.68-17.843-11.579-27.712c-1.897-9.87-2.336-18.727-1.329-26.573c1.269-8.352,3.547-17.777,6.833-28.282
		C852.529,815.303,857.464,805.368,864.042,796.001z M978.308,743.614c-3.796,0-8.102,1.458-12.907,4.366
		c-4.811,2.912-9.68,6.962-14.615,12.147c-4.936,5.19-9.491,11.14-13.666,17.842c-4.176,6.708-7.723,13.797-10.63,21.259
		c-2.912,7.467-4.746,15.185-5.504,23.156c-0.759,7.973,0,15.63,2.278,22.967c-9.367-2.782-16.265-7.462-20.689-14.046
		c-4.431-6.578-7.278-13.535-8.542-20.878c-2.534,7.343-4.621,15.314-6.264,23.916c-1.648,8.606-2.657,17.213-3.037,25.814
		c-0.379,8.607-0.065,16.893,0.949,24.866c1.009,7.971,2.847,14.995,5.504,21.068c2.658,6.074,6.133,11.009,10.44,14.806
		c4.3,3.796,9.739,5.693,16.323,5.693c9.36,0,18.157-2.591,26.384-7.781c8.221-5.184,15.754-12.018,22.588-20.5
		c6.833-8.476,12.907-18.222,18.221-29.23c5.315-11.009,9.681-22.268,13.098-33.786c3.416-11.513,5.695-22.712,6.833-33.597
		c1.14-10.878,0.95-20.624-0.57-29.23c-1.518-8.601-4.43-15.564-8.73-20.879C991.465,746.271,985.646,743.614,978.308,743.614z"/>
	<path fill="#FFFFFF" d="M1149.136,828.269c0.757,6.834-0.95,15.061-5.126,24.676c-4.177,9.621-9.68,19.046-16.513,28.282
		c-6.833,9.241-14.235,17.717-22.208,25.434c-7.973,7.723-15.375,13.227-22.208,16.513c-6.33,2.782-12.468,3.287-18.411,1.519
		c-5.951-1.768-9.936-5.943-11.959-12.527c-1.271-4.556-2.344-10.439-3.226-17.652c-0.89-7.212-1.33-14.995-1.33-23.347
		s0.44-16.893,1.33-25.625c0.882-8.73,2.467-16.763,4.745-24.106c0.758-3.037,2.717-5.125,5.883-6.263
		c3.163-1.14,6.389-1.579,9.68-1.329c3.286,0.254,6.264,0.89,8.921,1.897c2.658,1.015,3.988,2.029,3.988,3.037
		c-1.52,6.584-2.724,13.856-3.607,21.829c-0.89,7.971-1.396,15.63-1.519,22.967c-0.13,7.343-0.064,13.986,0.189,19.929
		c0.25,5.95,0.629,10.191,1.14,12.718c1.519,6.833,3.036,10.19,4.554,10.06c1.519-0.125,4.426-2.468,8.734-7.023
		c3.035-3.286,6.13-7.462,9.299-12.527c3.161-5.059,6.074-10.564,8.731-16.514c2.657-5.943,4.87-11.958,6.644-18.032
		c1.768-6.074,2.847-11.828,3.228-17.273c0.378-5.438-0.133-10.249-1.519-14.426c-1.395-4.175-3.988-7.147-7.783-8.921
		c4.301-1.008,8.666-1.388,13.097-1.138c4.425,0.254,8.411,1.138,11.959,2.657c3.539,1.518,6.513,3.606,8.921,6.263
		C1147.171,822.005,1148.625,824.983,1149.136,828.269z"/>
	<path fill="#FFFFFF" d="M1206.453,922.415c-2.786,1.519-6.708,2.658-11.768,3.417c-5.066,0.759-10.315,0.695-15.755-0.189
		c-5.444-0.884-10.692-2.972-15.754-6.264c-5.065-3.286-8.862-8.351-11.388-15.185c-3.285-8.855-3.543-18.916-0.761-30.18
		c2.782-11.257,7.844-21.637,15.187-31.128c7.338-9.49,16.638-17.143,27.901-22.967c11.259-5.819,23.727-7.842,37.393-6.074
		c8.601,1.269,14.296,3.861,17.082,7.782c2.782,3.927,4.426,7.153,4.937,9.68c1.007,6.584-0.825,13.097-5.506,19.551
		c-4.685,6.453-10.692,12.088-18.031,16.893c-7.342,4.811-15.373,8.292-24.106,10.44c-8.729,2.153-16.644,2.342-23.727,0.569
		c-2.029,8.862-2.276,16.199-0.757,22.018c1.518,5.314,4.109,8.796,7.781,10.439c3.664,1.649,7.973,1.839,12.907,0.57
		c4.935-1.263,10.249-3.732,15.942-7.403c5.694-3.665,11.325-8.031,16.894-13.097c5.062-4.555,10.119-10.119,15.185-16.703
		c5.061-6.578,10.12-13.032,15.186-19.36c0,0.254,0.381,0.824,1.138,1.708c0.761,0.89,1.39,2.088,1.9,3.607
		c0.503,1.518,0.569,3.292,0.189,5.314c-0.381,2.029-1.46,4.176-3.228,6.454c-10.125,12.403-19.615,22.528-28.472,30.37
		C1227.963,910.522,1217.843,917.1,1206.453,922.415z M1220.5,821.815c-3.795,1.27-7.467,3.547-11.011,6.834
		c-3.545,3.292-6.962,7.212-10.247,11.768c-3.294,4.556-6.205,9.556-8.733,14.995c-2.533,5.446-4.685,10.819-6.453,16.134
		c5.315-1.518,10.753-3.921,16.326-7.212c5.563-3.287,10.563-6.893,14.992-10.819c4.426-3.921,7.906-8.031,10.44-12.338
		c2.527-4.301,3.667-8.351,3.417-12.147c0-1.768-0.444-3.731-1.329-5.884C1227.013,820.997,1224.545,820.552,1220.5,821.815z"/>
	<path fill="#FFFFFF" d="M1290.725,860.917l19.742-28.471c0.248-0.505,1.262-1.833,3.036-3.986c1.768-2.147,3.855-4.366,6.263-6.644
		c2.402-2.277,5.185-4.3,8.352-6.074c3.16-1.767,6.388-2.527,9.682-2.277c4.554,0.255,7.715,1.27,9.49,3.037
		c1.768,1.774,2.905,3.671,3.414,5.693c0.506,2.534,0.25,6.074-0.757,10.63c-1.015,4.555-2.345,9.431-3.988,14.615
		c-1.646,5.19-3.225,10.315-4.745,15.374c-1.518,5.066-2.532,9.367-3.036,12.907c-1.773,7.088-1.709,11.33,0.191,12.718
		c1.896,1.394,4.87,0.759,8.921-1.898c4.045-2.658,8.79-6.833,14.236-12.528c5.439-5.693,10.816-11.958,16.132-18.791
		c0,0.254,0.38,0.824,1.14,1.708c0.759,0.89,1.328,2.088,1.709,3.607c0.379,1.518,0.438,3.292,0.189,5.314
		c-0.256,2.029-1.271,4.176-3.038,6.454c-7.087,8.862-14.614,16.134-22.587,21.829s-17.271,8.542-27.901,8.542
		c-5.065,0-9.682-1.198-13.857-3.607c-4.176-2.402-6.642-6.388-7.403-11.958c0-1.518,0.25-3.666,0.762-6.454
		c0.503-2.783,1.262-5.754,2.276-8.921c1.009-3.162,2.023-6.454,3.038-9.87c1.007-3.417,1.896-6.389,2.658-8.921
		c1.262-3.796,1.451-5.753,0.569-5.884c-0.89-0.125-2.154,0.569-3.797,2.087c-1.651,1.518-3.358,3.417-5.126,5.695
		c-1.773,2.278-3.038,4.05-3.795,5.314c-2.279,4.307-5.445,9.432-9.49,15.375c-4.053,5.949-7.47,11.33-10.252,16.133l-2.277,8.731
		c-3.037,11.139-6.327,18.097-9.87,20.879c-3.548,2.788-8.227,4.045-14.045,3.796c-3.797-0.249-6.769-1.518-8.921-3.796
		c-2.148-2.278-2.716-5.563-1.709-9.87c1.269-6.074,2.788-12.843,4.556-20.31c1.774-7.462,3.861-15.245,6.264-23.347
		c2.401-8.096,4.993-16.134,7.783-24.106c2.782-7.972,5.818-15.624,9.11-22.967c1.262-3.037,3.475-5.125,6.644-6.264
		c3.161-1.139,6.454-1.578,9.869-1.329c3.418,0.255,6.323,0.89,8.731,1.897c2.401,1.015,3.475,2.029,3.227,3.037L1290.725,860.917z"
		/>
	<path fill="#FFFFFF" d="M1436.879,761.835c6.072-0.249,11.637,0.76,16.702,3.037c5.062,2.278,7.973,5.825,8.731,10.63
		c0.759,3.547,0.189,6.643-1.707,9.3c-1.9,2.658-4.62,4.746-8.164,6.264c-3.547,1.518-7.531,2.467-11.957,2.847
		c-4.431,0.38-8.795,0.065-13.096-0.949c6.577-1.263,11.067-3.416,13.475-6.453c2.404-3.037,3.855-5.943,4.367-8.731
		c0.249-2.527-0.256-4.555-1.519-6.073c-1.271-1.519-2.913-2.212-4.937-2.089c-2.029,0.131-4.304,1.395-6.833,3.797
		c-2.532,2.408-4.687,6.264-6.454,11.579c-2.027,5.824-4.176,12.023-6.453,18.602c-2.276,6.583-4.306,12.782-6.073,18.6
		l-22.018,80.101c9.615-2.782,19.484-7.717,29.611-14.805c10.119-7.082,20.499-17.843,31.129-32.268
		c0,0.254,0.379,0.824,1.138,1.708c0.759,0.89,1.387,2.088,1.898,3.607c0.503,1.518,0.569,3.357,0.189,5.504
		c-0.381,2.153-1.583,4.366-3.606,6.643c-8.103,11.14-17.907,20.061-29.421,26.763c-11.521,6.709-22.841,11.455-33.975,14.236
		l-11.391,41.759c-1.518,5.314-3.167,9.68-4.935,13.096c-1.773,3.417-3.67,6.009-5.693,7.783c-2.023,1.768-4.111,2.906-6.266,3.417
		c-2.146,0.504-4.364,0.76-6.642,0.76c-5.062-0.256-8.601-1.773-10.63-4.556c-2.021-2.788-2.146-6.708-0.378-11.768l14.805-48.591
		c-2.782-1.263-4.047-3.097-3.797-5.504c0.254-2.403,2.533-3.855,6.833-4.366l32.269-108.191
		c3.286-11.133,8.352-19.741,15.184-25.814C1414.102,765.632,1423.971,762.345,1436.879,761.835z"/>
	<path fill="#FFFFFF" d="M1468.387,895.083c-1.773,7.088-1.65,10.504,0.379,10.25c2.023-0.25,5.248-2.782,9.682-7.593
		c4.425-4.804,9.74-11.068,15.942-18.791c6.199-7.717,12.462-15.624,18.792-23.726c0,0.254,0.379,0.824,1.14,1.708
		c0.757,0.89,1.387,2.088,1.896,3.607c0.503,1.518,0.569,3.292,0.191,5.314c-0.381,2.029-1.46,4.176-3.228,6.454
		c-5.065,6.074-9.49,11.454-13.287,16.134c-3.797,4.686-7.468,8.92-11.009,12.717c-3.548,3.797-7.153,7.343-10.819,10.63
		c-3.67,3.292-7.912,6.584-12.716,9.87c-2.534,2.028-5.572,3.167-9.112,3.417c-3.547,0.249-6.833-0.125-9.869-1.139
		c-3.037-1.009-5.631-2.658-7.783-4.936c-2.147-2.278-3.096-4.935-2.847-7.972c0.51-5.819,1.394-11.893,2.658-18.222
		c1.268-6.323,2.911-13.157,4.935-20.5c2.526-9.36,5.248-18.851,8.161-28.472c2.907-9.614,5.752-18.85,8.542-27.711
		c2.781-8.856,5.503-17.018,8.16-24.486c2.657-7.461,4.995-13.726,7.024-18.791c1.265-3.037,3.539-5.06,6.833-6.074
		c3.285-1.009,6.579-1.454,9.869-1.329c3.285,0.131,6.135,0.7,8.542,1.708c2.404,1.015,3.478,2.028,3.228,3.037L1468.387,895.083z"
		/>
	<path fill="#FFFFFF" d="M1534.434,925.831c-10.124,0-17.842-2.781-23.156-8.351c-5.315-5.563-8.476-12.527-9.49-20.879
		c-1.007-8.352,0-17.397,3.037-27.143c3.039-9.739,7.784-18.792,14.236-27.143c6.452-8.352,14.483-15.31,24.106-20.879
		c9.613-5.563,20.499-8.351,32.647-8.351c9.357,0,16.448,2.342,21.258,7.022c4.806,4.687,7.717,10.695,8.731,18.033
		c1.007,7.343,0.314,15.439-2.088,24.295c-2.407,8.862-6.138,17.338-11.199,25.435c3.541,0,7.213-1.329,11.008-3.986
		c3.798-2.656,7.339-5.753,10.63-9.3c3.286-3.542,6.322-7.147,9.112-10.819c2.782-3.665,5.058-6.513,6.833-8.541
		c0,0.254,0.313,0.824,0.948,1.708c0.628,0.89,1.14,2.088,1.519,3.607c0.38,1.518,0.438,3.292,0.19,5.314
		c-0.255,2.029-1.27,4.176-3.038,6.454c-1.27,1.269-2.276,2.533-3.037,3.797c-0.758,1.269-1.647,2.533-2.658,3.796
		c-3.035,3.547-6.138,6.643-9.299,9.3c-3.169,2.658-6.014,4.621-8.542,5.885c-8.352,4.306-16.199,6.329-23.535,6.073
		c-6.33,7.343-13.541,13.287-21.639,17.842C1552.905,923.554,1544.049,925.831,1534.434,925.831z M1539.749,912.544
		c3.541,0,7.083-2.016,10.63-6.05c3.541-4.033,7.083-8.944,10.63-14.745c-3.797-3.778-6.454-8.565-7.973-14.367
		c-0.759-3.274-0.569-6.104,0.569-8.5c1.14-2.396,2.783-4.283,4.936-5.67c2.147-1.388,4.556-2.082,7.213-2.082
		s4.995,0.759,7.022,2.265c1.768-5.541,3.228-10.831,4.364-15.873c1.14-5.042,1.834-9.58,2.088-13.614
		c0.25-4.033-0.064-7.242-0.948-9.639c-0.89-2.396-2.341-3.594-4.366-3.594c-4.555,0-9.241,2.272-14.045,6.81
		c-4.812,4.537-9.176,10.208-13.096,17.011c-3.928,6.804-7.345,14.176-10.252,22.114c-2.911,7.942-4.81,15.314-5.693,22.118
		c-0.89,6.804-0.698,12.474,0.569,17.011C1532.662,910.278,1535.444,912.544,1539.749,912.544z"/>
	<path fill="#FFFFFF" d="M1781.565,828.269c0.757,6.834-0.95,15.061-5.126,24.676c-4.176,9.621-9.621,19.046-16.323,28.282
		c-6.71,9.241-14.047,17.717-22.019,25.434c-7.973,7.723-15.374,13.227-22.209,16.513c-3.289,1.519-6.708,2.468-10.247,2.848
		c-3.548,0.379-6.833,0.124-9.871-0.759c-3.038-0.884-5.695-2.403-7.971-4.556c-2.279-2.147-3.797-5.125-4.558-8.921
		c-0.758-3.542-1.138-8.162-1.138-13.856c0-5.694,0.505-11.828,1.518-18.411c-4.05,5.065-7.723,9.491-11.008,13.287
		c-3.292,3.796-6.453,7.343-9.491,10.629c-3.038,3.292-6.265,6.394-9.68,9.301c-3.418,2.912-7.402,5.884-11.959,8.921
		c-2.532,2.028-5.57,3.167-9.109,3.417c-3.547,0.249-6.833-0.125-9.871-1.139c-3.038-1.009-5.563-2.658-7.592-4.936
		c-2.023-2.278-2.907-4.935-2.658-7.972c0.76-14.426,3.797-29.42,9.112-44.985c5.313-15.565,11.134-30.43,17.461-44.606
		c1.263-3.037,3.542-5.06,6.833-6.074c3.288-1.007,6.644-1.452,10.061-1.329c3.416,0.131,6.323,0.701,8.731,1.708
		c2.401,1.015,3.477,2.029,3.228,3.037l-22.778,76.304c-1.773,6.833-1.709,10.25,0.191,10.25c1.896,0,4.933-2.278,9.108-6.833
		c4.177-4.556,9.236-10.564,15.186-18.033c5.943-7.461,11.959-15.12,18.03-22.966c2.782-12.652,6.326-24.8,10.63-36.444
		c1.01-3.037,3.099-5.125,6.264-6.263c3.163-1.14,6.389-1.579,9.682-1.329c3.286,0.255,6.197,0.89,8.731,1.897
		c2.527,1.015,3.795,2.029,3.795,3.037c-1.518,6.584-3.291,13.856-5.314,21.829c-2.027,7.971-3.795,15.694-5.315,23.156
		c-1.518,7.468-2.72,14.236-3.605,20.31c-0.89,6.074-1.079,10.38-0.57,12.907c1.265,6.833,2.658,10.125,4.176,9.87
		c1.521-0.249,4.426-2.658,8.733-7.213c4.804-4.805,9.55-11.578,14.236-20.31c4.679-8.731,8.351-17.652,11.008-26.763
		c2.658-9.111,3.665-17.463,3.036-25.055c-0.634-7.592-3.736-12.776-9.299-15.564c4.3-1.008,8.601-1.388,12.905-1.138
		c4.3,0.254,8.288,1.138,11.96,2.657c3.665,1.518,6.701,3.606,9.108,6.263C1779.98,822.005,1781.31,824.983,1781.565,828.269z"/>
</g>
<g>
	
		<linearGradient id="SVGID_8_" gradientUnits="userSpaceOnUse" x1="1002.5352" y1="-3464.8425" x2="1002.5352" y2="-3585.2068" gradientTransform="matrix(1 0 0 -1 0 -2975.2754)">
		<stop  offset="0" style="stop-color:#301476"/>
		<stop  offset="0.6059" style="stop-color:#54446D"/>
	</linearGradient>
	<path fill="url(#SVGID_8_)" stroke="#000000" stroke-width="0.12" d="M417.356,549.753c0-33.351,262.21-60.186,585.176-60.186
		c324.563,0,586.792,26.835,585.175,60.186c1.617,33.348-260.612,60.178-585.175,60.178
		C679.567,609.932,417.356,583.101,417.356,549.753L417.356,549.753z"/>
</g>
<path fill="#946B89" stroke="#946B89" stroke-width="0.12" d="M438.476,539.277c-112.091,40.998,169.736,81.242,562.012,81.242
	c392.294,0,674.094-40.244,562.033-81.242C1359.168,599.255,641.831,599.255,438.476,539.277z"/>
<path fill="#FFFFFF" stroke="#FFFFFF" stroke-width="6" d="M978.161,489.567c-328.376,4.847-584.795,33.897-584.795,72.683
	c10.343,96.809,1200.143,96.809,1210.493,0C1603.858,523.464,1326.903,489.567,978.161,489.567L978.161,489.567z M980.684,499.262
	c337.021,0,602.721,29.053,602.721,62.988c0,82.301-1164.549,82.301-1164.549,0C418.855,528.315,663.938,499.262,980.684,499.262
	L980.684,499.262z"/>
<path fill="#FFFFFF" stroke="#FFFFFF" stroke-width="6" d="M1603.858,518.587v45.563c0-40.158-270.595-72.585-605.244-72.585
	c-334.657,0-605.25,32.427-605.25,72.585v-45.563c0-40.156,270.592-72.583,605.25-72.583
	C1333.264,446.004,1603.858,478.431,1603.858,518.587z"/>
<g>
	<rect x="926.074" y="407" fill="#FFFFFF" width="143.855" height="0"/>
	<g>
		<path fill="#FFFFFF" d="M1069.93,396.594c-47.201,0-94.403,0-141.604,0c-0.75,0-1.5,0-2.251,0c-12.897,0-12.897,20,0,20
			c47.202,0,94.403,0,141.604,0c0.75,0,1.501,0,2.251,0C1082.827,416.594,1082.827,396.594,1069.93,396.594
			c-47.201,0-94.403,0-141.604,0c-0.75,0-1.5,0-2.251,0c-12.897,0-12.897,20,0,20c47.202,0,94.403,0,141.604,0
			c0.75,0,1.501,0,2.251,0C1082.827,416.594,1082.827,396.594,1069.93,396.594z"/>
	</g>
</g>
<rect x="924" y="409" fill="#FFFFFF" stroke="#FFFFFF" stroke-width="4" width="20" height="54"/>
<rect x="1052" y="409" fill="#FFFFFF" stroke="#FFFFFF" stroke-width="4" width="20" height="54"/>
</svg>
